<?xml version="1.0" encoding="utf-8"?>
<!-- Generator: Adobe Illustrator 27.0.1, SVG Export Plug-In . SVG Version: 6.00 Build 0)  -->
<svg version="1.1" xmlns="http://www.w3.org/2000/svg" xmlns:xlink="http://www.w3.org/1999/xlink" x="0px" y="0px"
	 viewBox="0 0 807.91 808.95" style="enable-background:new 0 0 807.91 808.95;" xml:space="preserve">
<style type="text/css">
	.st0{display:none;}
	.st1{display:inline;fill:#7DCAFE;}
	.st2{fill:#FCF0BE;}
	.st3{fill:#F9F9F9;}
	.st4{fill:#FFD400;}
	.st5{fill:#FFB600;}
	.st6{fill:#FFFFFF;}
	.st7{fill:#6BA7CF;}
	.st8{fill:#8CC9EA;}
</style>
<g id="Layer_1" class="st0">
</g>
<g id="Layer_2">
	<g transform="translate(1.4065934065934016 1.4065934065934016) scale(2.81 2.81)">
		<path class="st6" d="M143.26,266.06c-2.89,0-5.57-1.53-7.04-4.02l-12.18-20.61c-25.13-42.48-48.86-82.61-56.93-98.79
			c-5.68-11.65-8.55-24.12-8.55-37.11c0-46.7,38-84.7,84.7-84.7c46.71,0,84.7,37.99,84.7,84.7c0,12.98-2.86,25.45-8.51,37.05
			c-0.06,0.11-0.11,0.23-0.17,0.34c-8.19,16.36-31.8,56.28-56.79,98.52l-12.19,20.61C148.83,264.53,146.15,266.06,143.26,266.06z
			 M143.26,35.16c-38.96,0-70.65,31.69-70.65,70.65c0,10.84,2.39,21.23,7.09,30.89c8.03,16.11,33.54,59.24,58.21,100.94l5.35,9.05
			l5.32-9c24.68-41.72,50.2-85.22,58.26-101.41c0.03-0.06,0.06,0.23,0.1,0.17c4.62-9.59,6.97-19.9,6.97-30.63
			C213.91,66.85,182.21,35.16,143.26,35.16z"/>
		<path class="st6" d="M143.26,142.34c-22.01,0-39.91-17.9-39.91-39.91s17.9-39.9,39.91-39.9c22,0,39.91,17.9,39.91,39.91
			S165.26,142.34,143.26,142.34z M143.26,76.6c-14.25,0-25.84,11.59-25.84,25.84s11.59,25.84,25.84,25.84s25.84-11.59,25.84-25.84
			S157.51,76.6,143.26,76.6z"/>
	</g>
</g>
</svg>
