<?xml version="1.0" encoding="utf-8"?>
<!-- Generator: Adobe Illustrator 27.0.1, SVG Export Plug-In . SVG Version: 6.00 Build 0)  -->
<svg version="1.1" xmlns="http://www.w3.org/2000/svg" xmlns:xlink="http://www.w3.org/1999/xlink" x="0px" y="0px"
	 viewBox="0 0 807.91 808.95" style="enable-background:new 0 0 807.91 808.95;" xml:space="preserve">
<style type="text/css">
	.st0{display:none;}
	.st1{display:inline;fill:#7DCAFE;}
	.st2{fill:#FCF0BE;}
	.st3{fill:#F9F9F9;}
	.st4{fill:#FFD400;}
	.st5{fill:#FFB600;}
	.st6{fill:#FFFFFF;}
	.st7{fill:#6BA7CF;}
	.st8{fill:#8CC9EA;}
	.st9{fill:#3A7CA0;}
</style>
<g id="Layer_1" class="st0">
	<rect x="-1525.67" y="-2942.09" class="st1" width="10423" height="1080"/>
</g>
<g id="Layer_2">
	<g>
		<path class="st2" d="M587.75-915.17c-15.66,22.78-24.83,50.37-24.83,80.1c0,78.21,63.4,141.61,141.61,141.61
			c29.73,0,57.32-9.17,80.1-24.83c-15.55,75.93-82.74,133.04-163.26,133.04c-92.04,0-166.66-74.61-166.66-166.66
			C454.71-832.43,511.82-899.61,587.75-915.17z"/>
		<g>
			<circle class="st3" cx="331.59" cy="-637.05" r="203.02"/>
			<circle class="st3" cx="522.77" cy="-544.53" r="147.19"/>
			<circle class="st3" cx="142.53" cy="-520.42" r="123.08"/>
			
				<rect x="142.95" y="-479.39" transform="matrix(-1 -4.488866e-11 4.488866e-11 -1 665.7171 -876.7297)" class="st3" width="379.81" height="82.05"/>
		</g>
	</g>
	<g>
		<g>
			<g>
				<g>
					<circle class="st4" cx="1554.42" cy="-711.63" r="107.86"/>
					<g>
						
							<rect x="1521.73" y="-897.98" transform="matrix(-1.836970e-16 1 -1 -1.836970e-16 666.3708 -2442.4702)" class="st4" width="65.38" height="19.86"/>
						<circle class="st4" cx="1554.42" cy="-920.91" r="9.93"/>
						<circle class="st4" cx="1554.42" cy="-855.36" r="9.93"/>
					</g>
					<g>
						
							<rect x="1521.73" y="-544.98" transform="matrix(-1.836970e-16 1 -1 -1.836970e-16 1019.374 -2089.467)" class="st4" width="65.38" height="19.86"/>
						<circle class="st4" cx="1554.42" cy="-567.9" r="9.93"/>
						<circle class="st4" cx="1554.42" cy="-502.36" r="9.93"/>
					</g>
				</g>
				<g>
					<rect x="1345.31" y="-721.56" class="st4" width="65.38" height="19.86"/>
					<circle class="st4" cx="1345.14" cy="-711.63" r="9.93"/>
					<circle class="st4" cx="1410.69" cy="-711.63" r="9.93"/>
				</g>
				<g>
					<rect x="1698.32" y="-721.56" class="st4" width="65.38" height="19.86"/>
					<circle class="st4" cx="1698.15" cy="-711.63" r="9.93"/>
					<circle class="st4" cx="1763.7" cy="-711.63" r="9.93"/>
				</g>
			</g>
			<g>
				<g>
					<g>
						
							<rect x="1396.98" y="-846.31" transform="matrix(0.7071 0.7071 -0.7071 0.7071 -172.6667 -1255.9022)" class="st4" width="65.38" height="19.86"/>
						<circle class="st4" cx="1406.44" cy="-859.61" r="9.93"/>
						<circle class="st4" cx="1452.79" cy="-813.26" r="9.93"/>
					</g>
					<g>
						
							<rect x="1646.6" y="-596.7" transform="matrix(0.7071 0.7071 -0.7071 0.7071 76.9442 -1359.2944)" class="st4" width="65.38" height="19.86"/>
						<circle class="st4" cx="1656.05" cy="-610" r="9.93"/>
						<circle class="st4" cx="1702.4" cy="-563.65" r="9.93"/>
					</g>
				</g>
				<g>
					
						<rect x="1396.98" y="-596.82" transform="matrix(0.7071 -0.7071 0.7071 0.7071 833.7333 839.0377)" class="st4" width="65.38" height="19.86"/>
					<circle class="st4" cx="1406.44" cy="-563.65" r="9.93"/>
					<circle class="st4" cx="1452.79" cy="-610" r="9.93"/>
				</g>
				<g>
					
						<rect x="1646.6" y="-846.43" transform="matrix(0.7071 -0.7071 0.7071 0.7071 1083.3442 942.4299)" class="st4" width="65.38" height="19.86"/>
					<circle class="st4" cx="1656.05" cy="-813.26" r="9.93"/>
					<circle class="st4" cx="1702.4" cy="-859.61" r="9.93"/>
				</g>
			</g>
		</g>
		<g>
			<circle class="st3" cx="1330.82" cy="-602.05" r="203.02"/>
			<circle class="st3" cx="1139.64" cy="-544.53" r="147.19"/>
			<circle class="st3" cx="1519.88" cy="-520.42" r="123.08"/>
			<rect x="1139.64" y="-479.39" class="st3" width="379.81" height="82.05"/>
		</g>
	</g>
	<g>
		<rect x="-3718.52" y="-2637.59" class="st5" width="471" height="471"/>
	</g>
	<g>
		
			<rect x="-3718.52" y="-2637.59" transform="matrix(0.7071 -0.7071 0.7071 0.7071 678.3809 -3166.4199)" class="st5" width="471" height="471"/>
	</g>
	<g>
		
			<rect x="-3718.52" y="-2637.59" transform="matrix(0.7071 -0.7071 0.7071 0.7071 678.3809 -3166.4199)" class="st5" width="471" height="471"/>
	</g>
	<g>
		
			<rect x="-3718.52" y="-2637.59" transform="matrix(0.3825 -0.9239 0.9239 0.3825 68.7555 -4701.2939)" class="st5" width="471" height="471"/>
	</g>
	<g>
		
			<rect x="-3718.52" y="-2637.59" transform="matrix(0.9238 -0.3828 0.3828 0.9238 654.2496 -1516.3901)" class="st5" width="471" height="471"/>
	</g>
	<circle class="st4" cx="-3483.02" cy="-2402.09" r="249.5"/>
	<path class="st2" d="M-628.43-945.59c-26.72,38.88-42.37,85.95-42.37,136.69c0,133.46,108.19,241.65,241.65,241.65
		c50.74,0,97.82-15.65,136.69-42.37C-319-480.05-433.65-382.59-571.06-382.59c-157.07,0-284.39-127.33-284.39-284.39
		C-855.46-804.4-758-919.05-628.43-945.59z"/>
	<g>
		<g>
			<g>
				<circle class="st4" cx="7398.79" cy="-2402.09" r="175.92"/>
				<g>
					
						<rect x="7345.47" y="-2706.03" transform="matrix(-1.836970e-16 1 -1 -1.836970e-16 4708.9565 -10088.624)" class="st4" width="106.64" height="32.39"/>
					<circle class="st4" cx="7398.79" cy="-2743.43" r="16.2"/>
					<circle class="st4" cx="7398.79" cy="-2636.51" r="16.2"/>
				</g>
				<g>
					
						<rect x="7345.47" y="-2130.26" transform="matrix(-1.836970e-16 1 -1 -1.836970e-16 5284.7222 -9512.8584)" class="st4" width="106.64" height="32.39"/>
					<circle class="st4" cx="7398.79" cy="-2167.66" r="16.2"/>
					<circle class="st4" cx="7398.79" cy="-2060.75" r="16.2"/>
				</g>
			</g>
			<g>
				<rect x="7057.73" y="-2418.28" class="st4" width="106.64" height="32.39"/>
				<circle class="st4" cx="7057.45" cy="-2402.09" r="16.2"/>
				<circle class="st4" cx="7164.36" cy="-2402.09" r="16.2"/>
			</g>
			<g>
				<rect x="7633.49" y="-2418.28" class="st4" width="106.64" height="32.39"/>
				<circle class="st4" cx="7633.22" cy="-2402.09" r="16.2"/>
				<circle class="st4" cx="7740.13" cy="-2402.09" r="16.2"/>
			</g>
		</g>
		<g>
			<g>
				<g>
					
						<rect x="7142" y="-2621.75" transform="matrix(0.7071 0.7071 -0.7071 0.7071 265.0559 -5851.0112)" class="st4" width="106.64" height="32.39"/>
					<circle class="st4" cx="7157.43" cy="-2643.45" r="16.2"/>
					<circle class="st4" cx="7233.03" cy="-2567.85" r="16.2"/>
				</g>
				<g>
					
						<rect x="7549.13" y="-2214.62" transform="matrix(0.7071 0.7071 -0.7071 0.7071 672.1837 -6019.6494)" class="st4" width="106.64" height="32.39"/>
					<circle class="st4" cx="7564.55" cy="-2236.32" r="16.2"/>
					<circle class="st4" cx="7640.15" cy="-2160.73" r="16.2"/>
				</g>
			</g>
			<g>
				
					<rect x="7142" y="-2214.82" transform="matrix(0.7071 -0.7071 0.7071 0.7071 3662.1216 4443.9009)" class="st4" width="106.64" height="32.39"/>
				<circle class="st4" cx="7157.43" cy="-2160.72" r="16.2"/>
				<circle class="st4" cx="7233.03" cy="-2236.32" r="16.2"/>
			</g>
			<g>
				
					<rect x="7549.13" y="-2621.94" transform="matrix(0.7071 -0.7071 0.7071 0.7071 4069.2493 4612.5386)" class="st4" width="106.64" height="32.39"/>
				<circle class="st4" cx="7564.56" cy="-2567.85" r="16.2"/>
				<circle class="st4" cx="7640.15" cy="-2643.45" r="16.2"/>
			</g>
		</g>
	</g>
	<g>
		<g>
			<path class="st4" d="M6528.58-2162.16c12.78-25.04,19.99-53.4,19.99-83.44c0-101.5-82.28-183.78-183.78-183.78
				c-101.5,0-183.78,82.28-183.78,183.78c0,30.04,7.21,58.4,19.99,83.44H6528.58z"/>
			<g>
				<g>
					<g>
						<rect x="6008.49" y="-2262.52" class="st4" width="111.4" height="33.84"/>
						<circle class="st4" cx="6008.21" cy="-2245.6" r="16.92"/>
						<circle class="st4" cx="6119.89" cy="-2245.6" r="16.92"/>
					</g>
					<g>
						<rect x="6609.97" y="-2262.52" class="st4" width="111.4" height="33.84"/>
						<circle class="st4" cx="6609.69" cy="-2245.6" r="16.92"/>
						<circle class="st4" cx="6721.38" cy="-2245.6" r="16.92"/>
					</g>
				</g>
				<g>
					<g>
						<g>
							
								<rect x="6096.54" y="-2475.07" transform="matrix(0.7071 0.7071 -0.7071 0.7071 63.7723 -5070.2637)" class="st4" width="111.4" height="33.84"/>
							<circle class="st4" cx="6112.65" cy="-2497.74" r="16.92"/>
							<circle class="st4" cx="6191.62" cy="-2418.77" r="16.92"/>
						</g>
					</g>
					<g>
						
							<rect x="6521.85" y="-2475.27" transform="matrix(0.7071 -0.7071 0.7071 0.7071 3664.8384 3930.9932)" class="st4" width="111.4" height="33.84"/>
						<circle class="st4" cx="6537.96" cy="-2418.77" r="16.92"/>
						<circle class="st4" cx="6616.93" cy="-2497.74" r="16.92"/>
					</g>
				</g>
			</g>
		</g>
		<g>
			<rect x="5981.82" y="-2176.93" class="st6" width="765.87" height="33.84"/>
			<circle class="st6" cx="5981.53" cy="-2160.01" r="16.92"/>
			<circle class="st6" cx="6748.05" cy="-2160.01" r="16.92"/>
		</g>
		<g>
			<g>
				
					<rect x="6288.19" y="-2584.3" transform="matrix(6.123234e-17 -1 1 6.123234e-17 8932.1729 3797.4077)" class="st6" width="153.2" height="33.84"/>
				<circle class="st6" cx="6364.79" cy="-2644.17" r="16.92"/>
				<g>
					
						<rect x="6356.06" y="-2531.04" transform="matrix(-0.7597 0.6503 -0.6503 -0.7597 9613.5703 -8581.0264)" class="st6" width="72.65" height="33.84"/>
					<circle class="st6" cx="6419.98" cy="-2537.74" r="16.92"/>
					<circle class="st6" cx="6364.79" cy="-2490.49" r="16.92"/>
				</g>
				<g>
					
						<rect x="6300.87" y="-2531.04" transform="matrix(0.7597 0.6503 -0.6503 0.7597 -111.947 -4725.3169)" class="st6" width="72.65" height="33.84"/>
					<circle class="st6" cx="6309.6" cy="-2537.74" r="16.92"/>
					<circle class="st6" cx="6364.79" cy="-2490.49" r="16.92"/>
				</g>
			</g>
			<circle class="st6" cx="6364.79" cy="-2490.49" r="16.92"/>
		</g>
	</g>
	<g>
		<g>
			<path class="st4" d="M5506.58-2162.16c12.78-25.04,19.99-53.4,19.99-83.44c0-101.5-82.28-183.78-183.78-183.78
				c-101.5,0-183.78,82.28-183.78,183.78c0,30.04,7.21,58.4,19.99,83.44H5506.58z"/>
			<g>
				<g>
					<g>
						<rect x="4986.49" y="-2262.52" class="st4" width="111.4" height="33.84"/>
						<circle class="st4" cx="4986.21" cy="-2245.6" r="16.92"/>
						<circle class="st4" cx="5097.89" cy="-2245.6" r="16.92"/>
					</g>
					<g>
						<rect x="5587.97" y="-2262.52" class="st4" width="111.4" height="33.84"/>
						<circle class="st4" cx="5587.69" cy="-2245.6" r="16.92"/>
						<circle class="st4" cx="5699.38" cy="-2245.6" r="16.92"/>
					</g>
				</g>
				<g>
					<g>
						<g>
							
								<rect x="5074.54" y="-2475.07" transform="matrix(0.7071 0.7071 -0.7071 0.7071 -235.5646 -4347.6006)" class="st4" width="111.4" height="33.84"/>
							<circle class="st4" cx="5090.65" cy="-2497.74" r="16.92"/>
							<circle class="st4" cx="5169.62" cy="-2418.77" r="16.92"/>
						</g>
					</g>
					<g>
						
							<rect x="5499.85" y="-2475.27" transform="matrix(0.7071 -0.7071 0.7071 0.7071 3365.5015 3208.3301)" class="st4" width="111.4" height="33.84"/>
						<circle class="st4" cx="5515.96" cy="-2418.77" r="16.92"/>
						<circle class="st4" cx="5594.93" cy="-2497.74" r="16.92"/>
					</g>
				</g>
			</g>
		</g>
		<g>
			<rect x="4959.82" y="-2176.93" class="st6" width="765.87" height="33.84"/>
			<circle class="st6" cx="4959.53" cy="-2160.01" r="16.92"/>
			<circle class="st6" cx="5726.05" cy="-2160.01" r="16.92"/>
		</g>
		<g>
			<g>
				
					<rect x="5266.19" y="-2584.2" transform="matrix(-1.836970e-16 1 -1 -1.836970e-16 2775.5103 -7910.0703)" class="st6" width="153.2" height="33.84"/>
				<circle class="st6" cx="5342.79" cy="-2490.49" r="16.92"/>
				<g>
					
						<rect x="5278.87" y="-2637.46" transform="matrix(0.7597 -0.6503 0.6503 0.7597 2981.5349 2826.7095)" class="st6" width="72.65" height="33.84"/>
					<circle class="st6" cx="5287.6" cy="-2596.92" r="16.92"/>
					<circle class="st6" cx="5342.79" cy="-2644.17" r="16.92"/>
				</g>
				<g>
					
						<rect x="5334.06" y="-2637.46" transform="matrix(-0.7597 -0.6503 0.6503 -0.7597 11154.2793 -1118.9143)" class="st6" width="72.65" height="33.84"/>
					<circle class="st6" cx="5397.98" cy="-2596.92" r="16.92"/>
					<circle class="st6" cx="5342.79" cy="-2644.17" r="16.92"/>
				</g>
			</g>
			<circle class="st6" cx="5342.79" cy="-2644.17" r="16.92"/>
		</g>
	</g>
	<g>
		<g>
			<g>
				<circle class="st4" cx="-1537.96" cy="-664.09" r="175.92"/>
				<g>
					
						<rect x="-1591.28" y="-968.03" transform="matrix(-1.836970e-16 1 -1 -1.836970e-16 -2489.7925 586.1253)" class="st4" width="106.64" height="32.39"/>
					<circle class="st4" cx="-1537.96" cy="-1005.43" r="16.2"/>
					<circle class="st4" cx="-1537.96" cy="-898.51" r="16.2"/>
				</g>
				<g>
					
						<rect x="-1591.28" y="-392.26" transform="matrix(-1.836970e-16 1 -1 -1.836970e-16 -1914.027 1161.8909)" class="st4" width="106.64" height="32.39"/>
					<circle class="st4" cx="-1537.96" cy="-429.66" r="16.2"/>
					<circle class="st4" cx="-1537.96" cy="-322.75" r="16.2"/>
				</g>
			</g>
			<g>
				<rect x="-1879.02" y="-680.28" class="st4" width="106.64" height="32.39"/>
				<circle class="st4" cx="-1879.3" cy="-664.09" r="16.2"/>
				<circle class="st4" cx="-1772.39" cy="-664.09" r="16.2"/>
			</g>
			<g>
				<rect x="-1303.26" y="-680.28" class="st4" width="106.64" height="32.39"/>
				<circle class="st4" cx="-1303.53" cy="-664.09" r="16.2"/>
				<circle class="st4" cx="-1196.62" cy="-664.09" r="16.2"/>
			</g>
		</g>
		<g>
			<g>
				<g>
					
						<rect x="-1794.74" y="-883.75" transform="matrix(0.7071 0.7071 -0.7071 0.7071 -1123.5057 977.2729)" class="st4" width="106.64" height="32.39"/>
					<circle class="st4" cx="-1779.32" cy="-905.45" r="16.2"/>
					<circle class="st4" cx="-1703.72" cy="-829.85" r="16.2"/>
				</g>
				<g>
					
						<rect x="-1387.62" y="-476.62" transform="matrix(0.7071 0.7071 -0.7071 0.7071 -716.3779 808.6351)" class="st4" width="106.64" height="32.39"/>
					<circle class="st4" cx="-1372.19" cy="-498.32" r="16.2"/>
					<circle class="st4" cx="-1296.6" cy="-422.73" r="16.2"/>
				</g>
			</g>
			<g>
				
					<rect x="-1794.74" y="-476.82" transform="matrix(0.7071 -0.7071 0.7071 0.7071 -184.3433 -1366.2867)" class="st4" width="106.64" height="32.39"/>
				<circle class="st4" cx="-1779.32" cy="-422.72" r="16.2"/>
				<circle class="st4" cx="-1703.72" cy="-498.32" r="16.2"/>
			</g>
			<g>
				
					<rect x="-1387.62" y="-883.94" transform="matrix(0.7071 -0.7071 0.7071 0.7071 222.7845 -1197.6488)" class="st4" width="106.64" height="32.39"/>
				<circle class="st4" cx="-1372.19" cy="-829.85" r="16.2"/>
				<circle class="st4" cx="-1296.6" cy="-905.45" r="16.2"/>
			</g>
		</g>
	</g>
	<g id="Layer_2_00000160911548333067680580000010587471583597221019_">
		<g>
			<path class="st3" d="M8866.58,2129.23c-21.08-102.61-111.9-179.78-220.74-179.78c-88.85,0-165.68,51.42-202.38,126.13
				c-3.25-0.19-6.53-0.3-9.84-0.3c-90.23,0-163.38,73.15-163.38,163.38s73.15,163.38,163.38,163.38l0,0h421.61v-0.01
				c0.16,0,0.31,0.01,0.47,0.01c75.45,0,136.62-61.17,136.62-136.62C8992.32,2193.63,8936.95,2134.77,8866.58,2129.23z"/>
			<path class="st7" d="M8685.4,2394.59C8685.4,2394.59,8685.39,2394.6,8685.4,2394.59h-36.16l25.57-25.57l0,0
				c2.9-2.9,2.9-7.61,0-10.52c-2.9-2.9-7.61-2.9-10.52,0c0,0,0,0-0.01,0.01l-25.57,25.57v-36.16c0,0,0,0,0-0.01s0,0,0-0.01v-0.02
				l0,0c-0.01-4.1-3.34-7.41-7.44-7.41s-7.42,3.32-7.44,7.41l0,0v0.02v0.01v0.01v36.16l-25.57-25.57c0,0,0,0,0-0.01c0,0,0,0-0.01,0
				l-0.01-0.01l0,0c-2.91-2.89-7.6-2.88-10.5,0.02c-2.9,2.9-2.9,7.59-0.02,10.5l0,0l0.01,0.01c0,0,0,0,0.01,0.01c0,0,0,0,0.01,0.01
				l25.57,25.57h-36.16c0,0,0,0-0.01,0c0,0,0,0-0.01,0h-0.02l0,0c-4.1,0.01-7.41,3.34-7.41,7.44c0,4.1,3.32,7.42,7.41,7.44l0,0h0.02
				h0.01h0.01h36.16l-25.57,25.57c0,0,0,0-0.01,0c0,0,0,0,0,0.01l-0.01,0.01l0,0c-2.89,2.91-2.88,7.6,0.02,10.5
				c2.9,2.9,7.59,2.9,10.5,0.02l0,0l0.01-0.01c0,0,0,0,0.01-0.01c0,0,0,0,0.01-0.01l25.57-25.57v36.16c0,0,0,0,0,0.01
				c0,4.11,3.33,7.44,7.44,7.44c4.11,0,7.44-3.33,7.44-7.44v-0.01V2420l25.57,25.57l0,0c2.9,2.9,7.61,2.9,10.52,0
				c2.9-2.9,2.9-7.61,0-10.52c0,0,0,0-0.01-0.01l-25.57-25.57h36.16c0,0,0,0,0.01,0c4.11,0,7.44-3.33,7.44-7.44
				C8692.84,2397.92,8689.51,2394.59,8685.4,2394.59z"/>
			<path class="st7" d="M8559.71,2515.12C8559.71,2515.12,8559.7,2515.12,8559.71,2515.12h-36.16l25.57-25.57l0,0
				c2.9-2.9,2.9-7.61,0-10.52c-2.9-2.91-7.61-2.9-10.52,0c0,0,0,0-0.01,0.01l-25.57,25.57v-36.16c0,0,0,0,0-0.01c0,0,0,0,0-0.01
				v-0.02l0,0c-0.01-4.1-3.34-7.41-7.44-7.41c-4.1,0-7.42,3.32-7.44,7.41l0,0v0.02v0.01v0.01v36.16l-25.57-25.57c0,0,0,0,0-0.01
				c0,0,0,0-0.01-0.01l-0.01-0.01l0,0c-2.91-2.89-7.6-2.88-10.5,0.02c-2.9,2.9-2.9,7.59-0.02,10.5l0,0l0.01,0.01c0,0,0,0,0.01,0.01
				c0,0,0,0,0.01,0.01l25.57,25.57h-36.16c0,0,0,0-0.01,0c0,0,0,0-0.01,0h-0.02l0,0c-4.1,0.01-7.41,3.34-7.41,7.44
				c0,4.1,3.32,7.42,7.41,7.44l0,0h0.02h0.01h0.01h36.16l-25.56,25.55c0,0,0,0-0.01,0c0,0,0,0,0,0.01l-0.01,0.01l0,0
				c-2.89,2.91-2.88,7.6,0.02,10.5c2.9,2.9,7.59,2.9,10.5,0.02l0,0l0.01-0.01c0,0,0,0,0.01-0.01c0,0,0,0,0.01-0.01l25.57-25.57
				v36.16c0,0,0,0,0,0.01c0,4.11,3.33,7.44,7.44,7.44c4.11,0,7.44-3.33,7.44-7.44v-0.01v-36.16l25.57,25.57l0,0
				c2.9,2.9,7.61,2.9,10.52,0c2.9-2.9,2.9-7.61,0-10.52c0,0,0,0-0.01-0.01l-25.57-25.57h36.16c0,0,0,0,0.01,0
				c4.11,0,7.44-3.33,7.44-7.44C8567.15,2518.45,8563.82,2515.12,8559.71,2515.12z"/>
			<path class="st7" d="M8811.09,2515.12C8811.08,2515.12,8811.08,2515.12,8811.09,2515.12h-36.16l25.57-25.57l0,0
				c2.9-2.9,2.9-7.61,0-10.52c-2.9-2.91-7.61-2.9-10.52,0c0,0,0,0-0.01,0.01l-25.57,25.57v-36.16c0,0,0,0,0-0.01c0,0,0,0,0-0.01
				v-0.02l0,0c-0.01-4.1-3.34-7.41-7.44-7.41c-4.1,0-7.42,3.32-7.44,7.41l0,0v0.02v0.01v0.01v36.16l-25.57-25.57c0,0,0,0,0-0.01
				c0,0,0,0-0.01-0.01l-0.01-0.01l0,0c-2.91-2.89-7.6-2.88-10.5,0.02c-2.9,2.9-2.9,7.59-0.02,10.5l0,0l0.01,0.01c0,0,0,0,0.01,0.01
				c0,0,0,0,0.01,0.01l25.57,25.57h-36.16c0,0,0,0-0.01,0c0,0,0,0-0.01,0h-0.02l0,0c-4.1,0.01-7.41,3.34-7.41,7.44
				c0,4.1,3.32,7.42,7.41,7.44l0,0h0.02h0.01h0.01h36.16l-25.57,25.57c0,0,0,0-0.01,0c0,0,0,0,0,0.01l-0.01,0.01l0,0
				c-2.89,2.91-2.88,7.6,0.02,10.5c2.9,2.9,7.59,2.9,10.5,0.02l0,0l0.01-0.01c0,0,0,0,0.01-0.01c0,0,0,0,0.01-0.01l25.57-25.57
				v36.16c0,0,0,0,0,0.01c0,4.11,3.33,7.44,7.44,7.44s7.44-3.33,7.44-7.44v-0.01v-36.16l25.57,25.57l0,0c2.9,2.9,7.61,2.9,10.52,0
				c2.9-2.9,2.9-7.61,0-10.52c0,0,0,0-0.01-0.01l-25.57-25.57h36.16c0,0,0,0,0.01,0c4.11,0,7.44-3.33,7.44-7.44
				C8818.53,2518.45,8815.2,2515.12,8811.09,2515.12z"/>
		</g>
		<g>
			<path class="st3" d="M9892.32,2129.23c-21.07-102.61-111.89-179.78-220.74-179.78c-88.85,0-165.68,51.42-202.38,126.13
				c-3.25-0.19-6.53-0.3-9.84-0.3c-90.23,0-163.38,73.15-163.38,163.38s73.15,163.38,163.38,163.38l0,0h421.61v-0.01
				c0.16,0,0.31,0.01,0.47,0.01c75.45,0,136.62-61.17,136.62-136.62C10018.07,2193.63,9962.69,2134.77,9892.32,2129.23z"/>
			<g>
				<g>
					
						<rect x="9478.08" y="2504.65" transform="matrix(0.5299 -0.848 0.848 0.5299 2355.7292 9295.4443)" class="st7" width="169.17" height="36.26"/>
					<circle class="st7" cx="9517.8" cy="2594.51" r="18.13"/>
					<circle class="st7" cx="9607.46" cy="2451.03" r="18.13"/>
				</g>
				<g>
					
						<rect x="9696.92" y="2506.41" transform="matrix(0.5299 -0.848 0.848 0.5299 2457.1023 9481.8564)" class="st7" width="169.17" height="36.26"/>
					<circle class="st7" cx="9736.64" cy="2596.29" r="18.13"/>
					<circle class="st7" cx="9826.3" cy="2452.81" r="18.13"/>
				</g>
				<g>
					
						<rect x="9421.25" y="2474.52" transform="matrix(0.5299 -0.8481 0.8481 0.5299 2338.7524 9204.3105)" class="st7" width="100.41" height="36.26"/>
					<circle class="st7" cx="9444.78" cy="2535.37" r="18.13"/>
					
						<ellipse transform="matrix(0.1602 -0.9871 0.9871 0.1602 5558.2407 11433.0469)" class="st7" cx="9498.09" cy="2450.06" rx="18.13" ry="18.13"/>
				</g>
				<g>
					
						<rect x="9640.07" y="2476.35" transform="matrix(0.5299 -0.8481 0.8481 0.5299 2440.0691 9390.7441)" class="st7" width="100.41" height="36.26"/>
					<circle class="st7" cx="9663.59" cy="2537.2" r="18.13"/>
					<circle class="st7" cx="9716.91" cy="2451.88" r="18.13"/>
				</g>
			</g>
		</g>
	</g>
	<g>
		<circle class="st3" cx="3351.43" cy="-748.61" r="238.28"/>
		<circle class="st3" cx="3127.05" cy="-681.09" r="172.76"/>
		<circle class="st3" cx="3573.33" cy="-652.8" r="144.46"/>
		<rect x="3127.05" y="-604.64" class="st3" width="445.79" height="96.31"/>
	</g>
	<g>
		<g>
			
				<rect x="3154.59" y="-406.57" transform="matrix(0.5299 -0.848 0.848 0.5299 1852.0588 2564.363)" class="st7" width="169.17" height="36.26"/>
			<circle class="st7" cx="3194.3" cy="-316.7" r="18.13"/>
			<circle class="st7" cx="3283.96" cy="-460.18" r="18.13"/>
		</g>
		<g>
			
				<rect x="3373.42" y="-404.8" transform="matrix(0.5299 -0.848 0.848 0.5299 1953.4319 2750.7756)" class="st7" width="169.17" height="36.26"/>
			<circle class="st7" cx="3413.14" cy="-314.92" r="18.13"/>
			<circle class="st7" cx="3502.8" cy="-458.4" r="18.13"/>
		</g>
		<g>
			
				<rect x="3097.75" y="-436.69" transform="matrix(0.5299 -0.8481 0.8481 0.5299 1834.8795 2472.9216)" class="st7" width="100.41" height="36.26"/>
			<circle class="st7" cx="3121.28" cy="-375.84" r="18.13"/>
			
				<ellipse transform="matrix(0.1602 -0.9871 0.9871 0.1602 3121.2766 2746.3142)" class="st7" cx="3174.59" cy="-461.15" rx="18.13" ry="18.13"/>
		</g>
		<g>
			
				<rect x="3316.57" y="-434.86" transform="matrix(0.5299 -0.8481 0.8481 0.5299 1936.1962 2659.3547)" class="st7" width="100.41" height="36.26"/>
			<circle class="st7" cx="3340.09" cy="-374.01" r="18.13"/>
			<circle class="st7" cx="3393.41" cy="-459.33" r="18.13"/>
		</g>
	</g>
	<g>
		<circle class="st3" cx="4363.43" cy="-748.61" r="238.28"/>
		<circle class="st3" cx="4139.05" cy="-681.09" r="172.76"/>
		<circle class="st3" cx="4585.33" cy="-652.8" r="144.46"/>
		<rect x="4139.05" y="-604.64" class="st3" width="445.79" height="96.31"/>
	</g>
	<g>
		<path class="st8" d="M4402.16-515.72C4402.16-515.72,4402.15-515.72,4402.16-515.72l-36.16,0l25.57-25.57c0,0,0,0,0,0
			c2.9-2.9,2.9-7.61,0-10.52c-2.9-2.9-7.61-2.9-10.52,0c0,0,0,0-0.01,0.01l-25.57,25.57v-36.16c0,0,0,0,0-0.01c0,0,0,0,0-0.01v-0.02
			h0c-0.01-4.1-3.34-7.41-7.44-7.41c-4.1,0-7.42,3.32-7.44,7.41h0v0.02c0,0,0,0.01,0,0.01c0,0,0,0.01,0,0.01v36.16l-25.57-25.57
			c0,0,0,0,0-0.01c0,0,0,0-0.01-0.01l-0.01-0.01l0,0c-2.91-2.89-7.6-2.88-10.5,0.02c-2.9,2.9-2.9,7.59-0.02,10.5l0,0l0.01,0.01
			c0,0,0,0,0.01,0.01c0,0,0,0,0.01,0.01l25.57,25.57h-36.16c0,0,0,0-0.01,0s0,0-0.01,0h-0.02v0c-4.1,0.01-7.41,3.34-7.41,7.44
			c0,4.1,3.32,7.42,7.41,7.44v0h0.02c0,0,0.01,0,0.01,0s0.01,0,0.01,0h36.16l-25.57,25.57c0,0,0,0-0.01,0c0,0,0,0-0.01,0.01
			l-0.01,0.01l0,0c-2.89,2.91-2.88,7.6,0.02,10.5c2.9,2.9,7.59,2.9,10.5,0.02l0,0l0.01-0.01c0,0,0,0,0.01-0.01c0,0,0,0,0.01-0.01
			l25.57-25.57v36.16c0,0,0,0,0,0.01c0,4.11,3.33,7.44,7.44,7.44c4.11,0,7.44-3.33,7.44-7.44c0,0,0-0.01,0-0.01v-36.16l25.57,25.57
			c0,0,0,0,0,0c2.9,2.9,7.61,2.9,10.52,0c2.9-2.9,2.9-7.61,0-10.52c0,0,0,0-0.01-0.01L4366-500.84h36.16c0,0,0,0,0.01,0
			c4.11,0,7.44-3.33,7.44-7.44C4409.6-512.39,4406.27-515.72,4402.16-515.72z"/>
		<path class="st8" d="M4276.47-395.19C4276.47-395.19,4276.47-395.19,4276.47-395.19l-36.16,0l25.57-25.57c0,0,0,0,0,0
			c2.9-2.9,2.9-7.61,0-10.52c-2.9-2.9-7.61-2.9-10.52,0c0,0,0,0-0.01,0.01l-25.57,25.57v-36.16c0,0,0,0,0-0.01s0,0,0-0.01v-0.02h0
			c-0.01-4.1-3.34-7.41-7.44-7.41s-7.42,3.32-7.44,7.41h0v0.02c0,0,0,0.01,0,0.01c0,0,0,0.01,0,0.01v36.16l-25.57-25.57
			c0,0,0,0,0-0.01c0,0,0,0-0.01-0.01l-0.01-0.01l0,0c-2.91-2.89-7.6-2.88-10.5,0.02c-2.9,2.9-2.9,7.59-0.02,10.5l0,0l0.01,0.01
			c0,0,0,0,0.01,0.01c0,0,0,0,0.01,0.01l25.57,25.57h-36.16c0,0,0,0-0.01,0s0,0-0.01,0h-0.02v0c-4.1,0.01-7.41,3.34-7.41,7.44
			c0,4.1,3.32,7.42,7.41,7.44v0h0.02c0,0,0.01,0,0.01,0s0.01,0,0.01,0h36.16l-25.57,25.57c0,0,0,0-0.01,0c0,0,0,0,0,0.01l-0.01,0.01
			l0,0c-2.89,2.91-2.88,7.6,0.02,10.5c2.9,2.9,7.59,2.9,10.5,0.02l0,0l0.01-0.01c0,0,0,0,0.01-0.01c0,0,0,0,0.01-0.01l25.57-25.57
			v36.16c0,0,0,0,0,0.01c0,4.11,3.33,7.44,7.44,7.44s7.44-3.33,7.44-7.44c0,0,0-0.01,0-0.01v-36.16l25.57,25.57c0,0,0,0,0,0
			c2.9,2.9,7.61,2.9,10.52,0c2.9-2.9,2.9-7.61,0-10.52c0,0,0,0-0.01-0.01l-25.57-25.57h36.16c0,0,0,0,0.01,0
			c4.11,0,7.44-3.33,7.44-7.44S4280.58-395.19,4276.47-395.19z"/>
		<path class="st8" d="M4527.85-395.19C4527.85-395.19,4527.84-395.19,4527.85-395.19l-36.16,0l25.57-25.57c0,0,0,0,0,0
			c2.9-2.9,2.9-7.61,0-10.52c-2.9-2.9-7.61-2.9-10.52,0c0,0,0,0-0.01,0.01l-25.57,25.57v-36.16c0,0,0,0,0-0.01s0,0,0-0.01v-0.02h0
			c-0.01-4.1-3.34-7.41-7.44-7.41c-4.1,0-7.42,3.32-7.44,7.41h0v0.02c0,0,0,0.01,0,0.01c0,0,0,0.01,0,0.01v36.16l-25.57-25.57
			c0,0,0,0,0-0.01c0,0,0,0-0.01-0.01l-0.01-0.01l0,0c-2.91-2.89-7.6-2.88-10.5,0.02c-2.9,2.9-2.9,7.59-0.02,10.5l0,0l0.01,0.01
			c0,0,0,0,0.01,0.01c0,0,0,0,0.01,0.01l25.57,25.57h-36.16c0,0,0,0-0.01,0c0,0,0,0-0.01,0h-0.02v0c-4.1,0.01-7.41,3.34-7.41,7.44
			c0,4.1,3.32,7.42,7.41,7.44v0h0.02c0,0,0.01,0,0.01,0c0,0,0.01,0,0.01,0h36.16l-25.57,25.57c0,0,0,0-0.01,0c0,0,0,0,0,0.01
			l-0.01,0.01l0,0c-2.89,2.91-2.88,7.6,0.02,10.5c2.9,2.9,7.59,2.9,10.5,0.02l0,0l0.01-0.01c0,0,0,0,0.01-0.01c0,0,0,0,0.01-0.01
			l25.57-25.57v36.16c0,0,0,0,0,0.01c0,4.11,3.33,7.44,7.44,7.44c4.11,0,7.44-3.33,7.44-7.44c0,0,0-0.01,0-0.01v-36.16l25.57,25.57
			c0,0,0,0,0,0c2.9,2.9,7.61,2.9,10.52,0c2.9-2.9,2.9-7.61,0-10.52c0,0,0,0-0.01-0.01l-25.57-25.57h36.16c0,0,0,0,0.01,0
			c4.11,0,7.44-3.33,7.44-7.44S4531.96-395.19,4527.85-395.19z"/>
	</g>
	<g>
		<circle class="st3" cx="2364.44" cy="-665.08" r="238.28"/>
		<circle class="st3" cx="2140.05" cy="-597.57" r="172.76"/>
		<circle class="st3" cx="2586.34" cy="-569.27" r="144.46"/>
		<rect x="2140.05" y="-521.12" class="st3" width="445.79" height="96.31"/>
	</g>
	<g>
		<rect x="5005.01" y="-546.59" class="st3" width="691.34" height="43.2"/>
		<circle class="st3" cx="5005.01" cy="-524.99" r="21.6"/>
		<circle class="st3" cx="5696.35" cy="-524.99" r="21.6"/>
		<g>
			<rect x="5095.29" y="-467.89" class="st3" width="521.84" height="43.2"/>
			<circle class="st3" cx="5095.29" cy="-446.29" r="21.6"/>
			<circle class="st3" cx="5617.16" cy="-446.29" r="21.6"/>
		</g>
		<path class="st3" d="M5721.31-603.69c0-2.25-0.35-4.42-0.99-6.46c0-0.01,0-0.03,0-0.04c-16.57-56.38-66.6-98.44-127.11-103.2
			c-22.29-108.5-118.32-190.09-233.41-190.09c-93.95,0-175.18,54.37-213.98,133.36c-3.44-0.2-6.91-0.32-10.4-0.32
			c-93.21,0-169.18,73.82-172.63,166.18l0.01,0.01c0,0.19-0.03,0.37-0.03,0.56c0,11.93,9.67,21.6,21.6,21.6c0.01,0,0.03,0,0.04,0
			l0,0h715.28c0.01,0,0.02,0,0.02,0h0.02h0.02l0,0C5711.67-582.12,5721.31-591.78,5721.31-603.69z"/>
	</g>
	<g>
		<g>
			<circle class="st3" cx="6334.08" cy="-791.41" r="238.28"/>
			<circle class="st3" cx="6109.69" cy="-723.9" r="172.76"/>
			<circle class="st3" cx="6555.98" cy="-695.6" r="144.46"/>
			<rect x="6109.69" y="-647.45" class="st3" width="445.79" height="96.31"/>
		</g>
		<polygon class="st4" points="6286.93,-530.63 6357.71,-530.63 6296.57,-441.21 6354.99,-443.06 6215.33,-298.49 6271.26,-409.15 
			6229.88,-406.61 		"/>
	</g>
	<g transform="translate(1.4065934065934016 1.4065934065934016) scale(2.81 2.81)">
		<path class="st9" d="M-547.82,280.32c-3.23,0-6.21-1.71-7.86-4.49l-13.6-23c-28.05-47.42-54.55-92.21-63.55-110.28
			c-6.34-13.01-9.54-26.92-9.54-41.43c0-52.13,42.42-94.55,94.55-94.55c52.14,0,94.55,42.41,94.55,94.55
			c0,14.49-3.2,28.41-9.5,41.35c-0.06,0.13-0.13,0.25-0.19,0.38c-9.15,18.27-35.5,62.82-63.4,109.98l-13.6,23
			C-541.6,278.61-544.59,280.32-547.82,280.32z M-547.82,24.82c-42.07,0-76.3,34.23-76.3,76.3c0,11.7,2.58,22.93,7.66,33.36
			c8.67,17.4,36.22,63.97,62.86,109.01l5.78,9.77l5.75-9.72c26.65-45.06,54.21-91.65,62.92-109.13c0.04-0.07,0.07-0.14,0.11-0.2
			c4.99-10.36,7.52-21.49,7.52-33.08C-471.52,59.05-505.74,24.82-547.82,24.82z"/>
		<path class="st9" d="M-547.82,142.22c-24.56,0-44.55-19.98-44.55-44.55s19.98-44.54,44.55-44.54c24.56,0,44.55,19.98,44.55,44.55
			S-523.26,142.22-547.82,142.22z M-547.82,71.37c-14.5,0-26.3,11.8-26.3,26.3s11.8,26.3,26.3,26.3c14.5,0,26.3-11.8,26.3-26.3
			S-533.31,71.37-547.82,71.37z"/>
	</g>
	<g>
		<path class="st9" d="M-867.81,347.49h317.57c31.71,0,61.64-12.46,84.26-35.09c22.63-22.63,35.09-52.55,35.09-84.26
			s-12.46-61.64-35.09-84.26c-22.62-22.63-52.55-35.09-84.26-35.09c-31.71,0-61.64,12.46-84.26,35.09s-35.09,52.55-35.09,84.26
			c0,14.76,11.97,26.73,26.73,26.73c14.76,0,26.73-11.97,26.73-26.73c0-36.34,29.56-65.9,65.9-65.9s65.9,29.56,65.9,65.9
			s-29.56,65.9-65.9,65.9h-317.57c-14.76,0-26.73,11.97-26.73,26.73S-882.57,347.49-867.81,347.49z"/>
		<path class="st9" d="M-224.18,240.43c-22.62-22.63-52.55-35.09-84.26-35.09s-61.64,12.46-84.26,35.09
			c-22.63,22.63-35.09,52.55-35.09,84.26c0,14.76,11.97,26.73,26.73,26.73c14.76,0,26.73-11.97,26.73-26.73
			c0-36.34,29.56-65.9,65.9-65.9s65.9,29.56,65.9,65.9s-29.56,65.9-65.9,65.9h-595.43c-14.76,0-26.73,11.97-26.73,26.73
			s11.97,26.73,26.73,26.73h595.43c31.71,0,61.64-12.46,84.26-35.09c22.63-22.63,35.09-52.55,35.09-84.26
			S-201.55,263.05-224.18,240.43z M-471.29,494.38c-3.26-1.36-6.75-2.05-10.27-2.05H-746.2c-14.76,0-26.73,11.97-26.73,26.73
			s11.97,26.73,26.73,26.73h254.35c27.35,0,50.46,23.11,50.46,50.46c0,27.35-23.11,50.46-50.46,50.46
			c-27.35,0-50.46-23.11-50.46-50.46c0-14.76-11.97-26.73-26.73-26.73c-14.76,0-26.73,11.97-26.73,26.73
			c0,27.62,10.85,53.67,30.54,73.37c19.7,19.7,45.75,30.54,73.37,30.54c27.62,0,53.68-10.85,73.37-30.54
			c19.7-19.7,30.54-45.75,30.54-73.37s-10.85-53.67-30.54-73.37C-433.2,508.16-451.47,498.39-471.29,494.38L-471.29,494.38z"/>
	</g>
	<g>
		<path class="st6" d="M403.94,146.4c0.84,1.65,1.7,3.34,2.57,5.08c18.13,36,37.99,79.96,55.93,123.8
			c19.95,48.76,36.71,95.29,48.46,134.57c16.68,55.76,19.17,82.97,19.17,94.23c0,33.69-13.12,65.36-36.94,89.18
			c-23.82,23.82-55.49,36.94-89.18,36.94c-33.69,0-65.36-13.12-89.18-36.94s-36.94-55.49-36.94-89.18
			c0-11.26,2.49-38.49,19.17-94.25c11.75-39.28,28.5-85.81,48.44-134.56c17.93-43.84,37.79-87.8,55.92-123.78
			C402.25,149.75,403.1,148.05,403.94,146.4 M403.96,46.83c-24.71,0-181.12,339.81-181.12,457.24
			c0,100.03,81.09,181.12,181.12,181.12c100.03,0,181.12-81.09,181.12-181.12C585.07,386.69,428.62,46.83,403.96,46.83L403.96,46.83
			z"/>
	</g>
</g>
</svg>
