<?xml version="1.0" encoding="utf-8"?>
<!-- Generator: Adobe Illustrator 27.0.1, SVG Export Plug-In . SVG Version: 6.00 Build 0)  -->
<svg version="1.1" xmlns="http://www.w3.org/2000/svg" xmlns:xlink="http://www.w3.org/1999/xlink" x="0px" y="0px"
	 viewBox="0 0 807.91 808.95" style="enable-background:new 0 0 807.91 808.95;" xml:space="preserve">
<style type="text/css">
	.st0{display:none;}
	.st1{display:inline;fill:#7DCAFE;}
	.st2{fill:#FCF0BE;}
	.st3{fill:#F9F9F9;}
	.st4{fill:#FFD400;}
	.st5{fill:#FFB600;}
	.st6{fill:#FFFFFF;}
	.st7{fill:#6BA7CF;}
	.st8{fill:#8CC9EA;}
	.st9{fill:#3A7CA0;}
	.st10{fill:#FFFFFF;stroke:#FFFFFF;stroke-width:18;stroke-miterlimit:10;}
</style>
<g id="Layer_1" class="st0">
	<rect x="-2506.92" y="-2942.09" class="st1" width="10423" height="1080"/>
</g>
<g id="Layer_2">
	<g>
		<path class="st2" d="M-393.5-915.17c-15.66,22.78-24.83,50.37-24.83,80.1c0,78.21,63.4,141.61,141.61,141.61
			c29.73,0,57.32-9.17,80.1-24.83c-15.55,75.93-82.74,133.04-163.26,133.04c-92.04,0-166.66-74.61-166.66-166.66
			C-526.54-832.43-469.42-899.61-393.5-915.17z"/>
		<g>
			<circle class="st3" cx="-649.66" cy="-637.05" r="203.02"/>
			<circle class="st3" cx="-458.48" cy="-544.53" r="147.19"/>
			<circle class="st3" cx="-838.72" cy="-520.42" r="123.08"/>
			
				<rect x="-838.3" y="-479.39" transform="matrix(-1 -4.488866e-11 4.488866e-11 -1 -1296.7804 -876.7297)" class="st3" width="379.81" height="82.05"/>
		</g>
	</g>
	<g>
		<g>
			<g>
				<g>
					<circle class="st4" cx="573.17" cy="-711.63" r="107.86"/>
					<g>
						
							<rect x="540.48" y="-897.98" transform="matrix(-1.836970e-16 1 -1 -1.836970e-16 -314.8778 -1461.2216)" class="st4" width="65.38" height="19.86"/>
						<circle class="st4" cx="573.17" cy="-920.91" r="9.93"/>
						<circle class="st4" cx="573.17" cy="-855.36" r="9.93"/>
					</g>
					<g>
						
							<rect x="540.48" y="-544.98" transform="matrix(-1.836970e-16 1 -1 -1.836970e-16 38.1253 -1108.2184)" class="st4" width="65.38" height="19.86"/>
						<circle class="st4" cx="573.17" cy="-567.9" r="9.93"/>
						<circle class="st4" cx="573.17" cy="-502.36" r="9.93"/>
					</g>
				</g>
				<g>
					<rect x="364.06" y="-721.56" class="st4" width="65.38" height="19.86"/>
					<circle class="st4" cx="363.9" cy="-711.63" r="9.93"/>
					<circle class="st4" cx="429.44" cy="-711.63" r="9.93"/>
				</g>
				<g>
					<rect x="717.07" y="-721.56" class="st4" width="65.38" height="19.86"/>
					<circle class="st4" cx="716.9" cy="-711.63" r="9.93"/>
					<circle class="st4" cx="782.45" cy="-711.63" r="9.93"/>
				</g>
			</g>
			<g>
				<g>
					<g>
						
							<rect x="415.74" y="-846.31" transform="matrix(0.7071 0.7071 -0.7071 0.7071 -460.0678 -562.0546)" class="st4" width="65.38" height="19.86"/>
						<circle class="st4" cx="425.19" cy="-859.61" r="9.93"/>
						<circle class="st4" cx="471.54" cy="-813.26" r="9.93"/>
					</g>
					<g>
						
							<rect x="665.35" y="-596.7" transform="matrix(0.7071 0.7071 -0.7071 0.7071 -210.4569 -665.4468)" class="st4" width="65.38" height="19.86"/>
						<circle class="st4" cx="674.8" cy="-610" r="9.93"/>
						<circle class="st4" cx="721.15" cy="-563.65" r="9.93"/>
					</g>
				</g>
				<g>
					
						<rect x="415.74" y="-596.82" transform="matrix(0.7071 -0.7071 0.7071 0.7071 546.3323 145.19)" class="st4" width="65.38" height="19.86"/>
					<circle class="st4" cx="425.19" cy="-563.65" r="9.93"/>
					<circle class="st4" cx="471.54" cy="-610" r="9.93"/>
				</g>
				<g>
					
						<rect x="665.35" y="-846.43" transform="matrix(0.7071 -0.7071 0.7071 0.7071 795.9432 248.5823)" class="st4" width="65.38" height="19.86"/>
					<circle class="st4" cx="674.8" cy="-813.26" r="9.93"/>
					<circle class="st4" cx="721.15" cy="-859.61" r="9.93"/>
				</g>
			</g>
		</g>
		<g>
			<circle class="st3" cx="349.57" cy="-602.05" r="203.02"/>
			<circle class="st3" cx="158.4" cy="-544.53" r="147.19"/>
			<circle class="st3" cx="538.63" cy="-520.42" r="123.08"/>
			<rect x="158.4" y="-479.39" class="st3" width="379.81" height="82.05"/>
		</g>
	</g>
	<g>
		<rect x="-4699.77" y="-2637.59" class="st5" width="471" height="471"/>
	</g>
	<g>
		
			<rect x="-4699.77" y="-2637.59" transform="matrix(0.7071 -0.7071 0.7071 0.7071 390.9798 -3860.2673)" class="st5" width="471" height="471"/>
	</g>
	<g>
		
			<rect x="-4699.77" y="-2637.59" transform="matrix(0.7071 -0.7071 0.7071 0.7071 390.9798 -3860.2673)" class="st5" width="471" height="471"/>
	</g>
	<g>
		
			<rect x="-4699.77" y="-2637.59" transform="matrix(0.3825 -0.9239 0.9239 0.3825 -537.1279 -5607.9082)" class="st5" width="471" height="471"/>
	</g>
	<g>
		
			<rect x="-4699.77" y="-2637.59" transform="matrix(0.9238 -0.3828 0.3828 0.9238 579.4975 -1892.04)" class="st5" width="471" height="471"/>
	</g>
	<circle class="st4" cx="-4464.27" cy="-2402.09" r="249.5"/>
	<path class="st2" d="M-1609.68-945.59c-26.72,38.88-42.37,85.95-42.37,136.69c0,133.46,108.19,241.65,241.65,241.65
		c50.74,0,97.82-15.65,136.69-42.37c-26.54,129.57-141.19,227.03-278.61,227.03c-157.07,0-284.39-127.33-284.39-284.39
		C-1836.71-804.4-1739.25-919.05-1609.68-945.59z"/>
	<g>
		<g>
			<g>
				<circle class="st4" cx="6417.54" cy="-2402.09" r="175.92"/>
				<g>
					
						<rect x="6364.22" y="-2706.03" transform="matrix(-1.836970e-16 1 -1 -1.836970e-16 3727.708 -9107.375)" class="st4" width="106.64" height="32.39"/>
					<circle class="st4" cx="6417.54" cy="-2743.43" r="16.2"/>
					<circle class="st4" cx="6417.54" cy="-2636.51" r="16.2"/>
				</g>
				<g>
					
						<rect x="6364.22" y="-2130.26" transform="matrix(-1.836970e-16 1 -1 -1.836970e-16 4303.4736 -8531.6094)" class="st4" width="106.64" height="32.39"/>
					<circle class="st4" cx="6417.54" cy="-2167.66" r="16.2"/>
					<circle class="st4" cx="6417.54" cy="-2060.75" r="16.2"/>
				</g>
			</g>
			<g>
				<rect x="6076.48" y="-2418.28" class="st4" width="106.64" height="32.39"/>
				<circle class="st4" cx="6076.2" cy="-2402.09" r="16.2"/>
				<circle class="st4" cx="6183.12" cy="-2402.09" r="16.2"/>
			</g>
			<g>
				<rect x="6652.24" y="-2418.28" class="st4" width="106.64" height="32.39"/>
				<circle class="st4" cx="6651.97" cy="-2402.09" r="16.2"/>
				<circle class="st4" cx="6758.88" cy="-2402.09" r="16.2"/>
			</g>
		</g>
		<g>
			<g>
				<g>
					
						<rect x="6160.76" y="-2621.75" transform="matrix(0.7071 0.7071 -0.7071 0.7071 -22.3451 -5157.1636)" class="st4" width="106.64" height="32.39"/>
					<circle class="st4" cx="6176.18" cy="-2643.45" r="16.2"/>
					<circle class="st4" cx="6251.78" cy="-2567.85" r="16.2"/>
				</g>
				<g>
					
						<rect x="6567.88" y="-2214.62" transform="matrix(0.7071 0.7071 -0.7071 0.7071 384.7826 -5325.8018)" class="st4" width="106.64" height="32.39"/>
					<circle class="st4" cx="6583.31" cy="-2236.32" r="16.2"/>
					<circle class="st4" cx="6658.9" cy="-2160.73" r="16.2"/>
				</g>
			</g>
			<g>
				
					<rect x="6160.76" y="-2214.82" transform="matrix(0.7071 -0.7071 0.7071 0.7071 3374.7205 3750.0532)" class="st4" width="106.64" height="32.39"/>
				<circle class="st4" cx="6176.18" cy="-2160.72" r="16.2"/>
				<circle class="st4" cx="6251.78" cy="-2236.32" r="16.2"/>
			</g>
			<g>
				
					<rect x="6567.88" y="-2621.94" transform="matrix(0.7071 -0.7071 0.7071 0.7071 3781.8481 3918.6909)" class="st4" width="106.64" height="32.39"/>
				<circle class="st4" cx="6583.31" cy="-2567.85" r="16.2"/>
				<circle class="st4" cx="6658.9" cy="-2643.45" r="16.2"/>
			</g>
		</g>
	</g>
	<g>
		<g>
			<path class="st4" d="M5547.33-2162.16c12.78-25.04,19.99-53.4,19.99-83.44c0-101.5-82.28-183.78-183.78-183.78
				s-183.78,82.28-183.78,183.78c0,30.04,7.21,58.4,19.99,83.44H5547.33z"/>
			<g>
				<g>
					<g>
						<rect x="5027.24" y="-2262.52" class="st4" width="111.4" height="33.84"/>
						<circle class="st4" cx="5026.96" cy="-2245.6" r="16.92"/>
						<circle class="st4" cx="5138.64" cy="-2245.6" r="16.92"/>
					</g>
					<g>
						<rect x="5628.73" y="-2262.52" class="st4" width="111.4" height="33.84"/>
						<circle class="st4" cx="5628.44" cy="-2245.6" r="16.92"/>
						<circle class="st4" cx="5740.13" cy="-2245.6" r="16.92"/>
					</g>
				</g>
				<g>
					<g>
						<g>
							
								<rect x="5115.29" y="-2475.07" transform="matrix(0.7071 0.7071 -0.7071 0.7071 -223.6288 -4376.416)" class="st4" width="111.4" height="33.84"/>
							<circle class="st4" cx="5131.4" cy="-2497.74" r="16.92"/>
							<circle class="st4" cx="5210.37" cy="-2418.77" r="16.92"/>
						</g>
					</g>
					<g>
						
							<rect x="5540.6" y="-2475.27" transform="matrix(0.7071 -0.7071 0.7071 0.7071 3377.4373 3237.1455)" class="st4" width="111.4" height="33.84"/>
						<circle class="st4" cx="5556.71" cy="-2418.77" r="16.92"/>
						<circle class="st4" cx="5635.69" cy="-2497.74" r="16.92"/>
					</g>
				</g>
			</g>
		</g>
		<g>
			<rect x="5000.57" y="-2176.93" class="st6" width="765.87" height="33.84"/>
			<circle class="st6" cx="5000.28" cy="-2160.01" r="16.92"/>
			<circle class="st6" cx="5766.8" cy="-2160.01" r="16.92"/>
		</g>
		<g>
			<g>
				
					<rect x="5306.94" y="-2584.3" transform="matrix(6.123234e-17 -1 1 6.123234e-17 7950.9243 2816.1589)" class="st6" width="153.2" height="33.84"/>
				<circle class="st6" cx="5383.54" cy="-2644.17" r="16.92"/>
				<g>
					
						<rect x="5374.81" y="-2531.04" transform="matrix(-0.7597 0.6503 -0.6503 -0.7597 7886.8926 -7942.916)" class="st6" width="72.65" height="33.84"/>
					<circle class="st6" cx="5438.73" cy="-2537.74" r="16.92"/>
					<circle class="st6" cx="5383.54" cy="-2490.49" r="16.92"/>
				</g>
				<g>
					
						<rect x="5319.62" y="-2531.04" transform="matrix(0.7597 0.6503 -0.6503 0.7597 -347.7672 -4087.2061)" class="st6" width="72.65" height="33.84"/>
					<circle class="st6" cx="5328.35" cy="-2537.74" r="16.92"/>
					<circle class="st6" cx="5383.54" cy="-2490.49" r="16.92"/>
				</g>
			</g>
			<circle class="st6" cx="5383.54" cy="-2490.49" r="16.92"/>
		</g>
	</g>
	<g>
		<g>
			<path class="st4" d="M4525.33-2162.16c12.78-25.04,19.99-53.4,19.99-83.44c0-101.5-82.28-183.78-183.78-183.78
				s-183.78,82.28-183.78,183.78c0,30.04,7.21,58.4,19.99,83.44H4525.33z"/>
			<g>
				<g>
					<g>
						<rect x="4005.24" y="-2262.52" class="st4" width="111.4" height="33.84"/>
						<circle class="st4" cx="4004.96" cy="-2245.6" r="16.92"/>
						<circle class="st4" cx="4116.64" cy="-2245.6" r="16.92"/>
					</g>
					<g>
						<rect x="4606.73" y="-2262.52" class="st4" width="111.4" height="33.84"/>
						<circle class="st4" cx="4606.44" cy="-2245.6" r="16.92"/>
						<circle class="st4" cx="4718.13" cy="-2245.6" r="16.92"/>
					</g>
				</g>
				<g>
					<g>
						<g>
							
								<rect x="4093.29" y="-2475.07" transform="matrix(0.7071 0.7071 -0.7071 0.7071 -522.9657 -3653.7529)" class="st4" width="111.4" height="33.84"/>
							<circle class="st4" cx="4109.4" cy="-2497.74" r="16.92"/>
							<circle class="st4" cx="4188.37" cy="-2418.77" r="16.92"/>
						</g>
					</g>
					<g>
						
							<rect x="4518.6" y="-2475.27" transform="matrix(0.7071 -0.7071 0.7071 0.7071 3078.1003 2514.4824)" class="st4" width="111.4" height="33.84"/>
						<circle class="st4" cx="4534.71" cy="-2418.77" r="16.92"/>
						<circle class="st4" cx="4613.69" cy="-2497.74" r="16.92"/>
					</g>
				</g>
			</g>
		</g>
		<g>
			<rect x="3978.57" y="-2176.93" class="st6" width="765.87" height="33.84"/>
			<circle class="st6" cx="3978.28" cy="-2160.01" r="16.92"/>
			<circle class="st6" cx="4744.8" cy="-2160.01" r="16.92"/>
		</g>
		<g>
			<g>
				
					<rect x="4284.94" y="-2584.2" transform="matrix(-1.836970e-16 1 -1 -1.836970e-16 1794.2615 -6928.8213)" class="st6" width="153.2" height="33.84"/>
				<circle class="st6" cx="4361.54" cy="-2490.49" r="16.92"/>
				<g>
					
						<rect x="4297.62" y="-2637.46" transform="matrix(0.7597 -0.6503 0.6503 0.7597 2745.7146 2188.5986)" class="st6" width="72.65" height="33.84"/>
					<circle class="st6" cx="4306.35" cy="-2596.92" r="16.92"/>
					<circle class="st6" cx="4361.54" cy="-2644.17" r="16.92"/>
				</g>
				<g>
					
						<rect x="4352.81" y="-2637.46" transform="matrix(-0.7597 -0.6503 0.6503 -0.7597 9427.6025 -1757.025)" class="st6" width="72.65" height="33.84"/>
					<circle class="st6" cx="4416.73" cy="-2596.92" r="16.92"/>
					<circle class="st6" cx="4361.54" cy="-2644.17" r="16.92"/>
				</g>
			</g>
			<circle class="st6" cx="4361.54" cy="-2644.17" r="16.92"/>
		</g>
	</g>
	<g>
		<g>
			<g>
				<circle class="st4" cx="-2519.21" cy="-664.09" r="175.92"/>
				<g>
					
						<rect x="-2572.53" y="-968.03" transform="matrix(-1.836970e-16 1 -1 -1.836970e-16 -3471.0413 1567.374)" class="st4" width="106.64" height="32.39"/>
					<circle class="st4" cx="-2519.21" cy="-1005.43" r="16.2"/>
					<circle class="st4" cx="-2519.21" cy="-898.51" r="16.2"/>
				</g>
				<g>
					
						<rect x="-2572.53" y="-392.26" transform="matrix(-1.836970e-16 1 -1 -1.836970e-16 -2895.2756 2143.1396)" class="st4" width="106.64" height="32.39"/>
					<circle class="st4" cx="-2519.21" cy="-429.66" r="16.2"/>
					<circle class="st4" cx="-2519.21" cy="-322.75" r="16.2"/>
				</g>
			</g>
			<g>
				<rect x="-2860.27" y="-680.28" class="st4" width="106.64" height="32.39"/>
				<circle class="st4" cx="-2860.55" cy="-664.09" r="16.2"/>
				<circle class="st4" cx="-2753.63" cy="-664.09" r="16.2"/>
			</g>
			<g>
				<rect x="-2284.51" y="-680.28" class="st4" width="106.64" height="32.39"/>
				<circle class="st4" cx="-2284.78" cy="-664.09" r="16.2"/>
				<circle class="st4" cx="-2177.87" cy="-664.09" r="16.2"/>
			</g>
		</g>
		<g>
			<g>
				<g>
					
						<rect x="-2775.99" y="-883.75" transform="matrix(0.7071 0.7071 -0.7071 0.7071 -1410.9067 1671.1206)" class="st4" width="106.64" height="32.39"/>
					<circle class="st4" cx="-2760.57" cy="-905.45" r="16.2"/>
					<circle class="st4" cx="-2684.97" cy="-829.85" r="16.2"/>
				</g>
				<g>
					
						<rect x="-2368.87" y="-476.62" transform="matrix(0.7071 0.7071 -0.7071 0.7071 -1003.7791 1502.4828)" class="st4" width="106.64" height="32.39"/>
					<circle class="st4" cx="-2353.44" cy="-498.32" r="16.2"/>
					<circle class="st4" cx="-2277.84" cy="-422.73" r="16.2"/>
				</g>
			</g>
			<g>
				
					<rect x="-2775.99" y="-476.82" transform="matrix(0.7071 -0.7071 0.7071 0.7071 -471.7444 -2060.1343)" class="st4" width="106.64" height="32.39"/>
				<circle class="st4" cx="-2760.57" cy="-422.72" r="16.2"/>
				<circle class="st4" cx="-2684.97" cy="-498.32" r="16.2"/>
			</g>
			<g>
				
					<rect x="-2368.87" y="-883.94" transform="matrix(0.7071 -0.7071 0.7071 0.7071 -64.6166 -1891.4965)" class="st4" width="106.64" height="32.39"/>
				<circle class="st4" cx="-2353.44" cy="-829.85" r="16.2"/>
				<circle class="st4" cx="-2277.84" cy="-905.45" r="16.2"/>
			</g>
		</g>
	</g>
	<g id="Layer_2_00000160911548333067680580000010587471583597221019_">
		<g>
			<path class="st3" d="M7885.33,2129.23c-21.08-102.61-111.9-179.78-220.74-179.78c-88.85,0-165.68,51.42-202.38,126.13
				c-3.25-0.19-6.53-0.3-9.84-0.3c-90.23,0-163.38,73.15-163.38,163.38s73.15,163.38,163.38,163.38l0,0h421.61v-0.01
				c0.16,0,0.31,0.01,0.47,0.01c75.45,0,136.62-61.17,136.62-136.62C8011.07,2193.63,7955.7,2134.77,7885.33,2129.23z"/>
			<path class="st7" d="M7704.15,2394.59C7704.15,2394.59,7704.14,2394.6,7704.15,2394.59h-36.16l25.57-25.57l0,0
				c2.9-2.9,2.9-7.61,0-10.52c-2.9-2.9-7.61-2.9-10.52,0c0,0,0,0-0.01,0.01l-25.57,25.57v-36.16c0,0,0,0,0-0.01s0,0,0-0.01v-0.02
				l0,0c-0.01-4.1-3.34-7.41-7.44-7.41s-7.42,3.32-7.44,7.41l0,0v0.02v0.01v0.01v36.16l-25.57-25.57c0,0,0,0,0-0.01c0,0,0,0-0.01,0
				l-0.01-0.01l0,0c-2.91-2.89-7.6-2.88-10.5,0.02c-2.9,2.9-2.9,7.59-0.02,10.5l0,0l0.01,0.01c0,0,0,0,0.01,0.01c0,0,0,0,0.01,0.01
				l25.57,25.57h-36.16c0,0,0,0-0.01,0c0,0,0,0-0.01,0h-0.02l0,0c-4.1,0.01-7.41,3.34-7.41,7.44c0,4.1,3.32,7.42,7.41,7.44l0,0h0.02
				h0.01h0.01h36.16l-25.57,25.57c0,0,0,0-0.01,0c0,0,0,0,0,0.01l-0.01,0.01l0,0c-2.89,2.91-2.88,7.6,0.02,10.5
				c2.9,2.9,7.59,2.9,10.5,0.02l0,0l0.01-0.01c0,0,0,0,0.01-0.01c0,0,0,0,0.01-0.01l25.57-25.57v36.16c0,0,0,0,0,0.01
				c0,4.11,3.33,7.44,7.44,7.44s7.44-3.33,7.44-7.44v-0.01V2420l25.57,25.57l0,0c2.9,2.9,7.61,2.9,10.52,0c2.9-2.9,2.9-7.61,0-10.52
				c0,0,0,0-0.01-0.01l-25.57-25.57h36.16c0,0,0,0,0.01,0c4.11,0,7.44-3.33,7.44-7.44
				C7711.59,2397.92,7708.26,2394.59,7704.15,2394.59z"/>
			<path class="st7" d="M7578.46,2515.12C7578.46,2515.12,7578.45,2515.12,7578.46,2515.12h-36.16l25.57-25.57l0,0
				c2.9-2.9,2.9-7.61,0-10.52c-2.9-2.91-7.61-2.9-10.52,0c0,0,0,0-0.01,0.01l-25.57,25.57v-36.16c0,0,0,0,0-0.01c0,0,0,0,0-0.01
				v-0.02l0,0c-0.01-4.1-3.34-7.41-7.44-7.41c-4.1,0-7.42,3.32-7.44,7.41l0,0v0.02v0.01v0.01v36.16l-25.57-25.57c0,0,0,0,0-0.01
				c0,0,0,0-0.01-0.01l-0.01-0.01l0,0c-2.91-2.89-7.6-2.88-10.5,0.02c-2.9,2.9-2.9,7.59-0.02,10.5l0,0l0.01,0.01c0,0,0,0,0.01,0.01
				c0,0,0,0,0.01,0.01l25.57,25.57h-36.16c0,0,0,0-0.01,0c0,0,0,0-0.01,0h-0.02l0,0c-4.1,0.01-7.41,3.34-7.41,7.44
				c0,4.1,3.32,7.42,7.41,7.44l0,0h0.02h0.01h0.01h36.16l-25.56,25.55c0,0,0,0-0.01,0c0,0,0,0,0,0.01l-0.01,0.01l0,0
				c-2.89,2.91-2.88,7.6,0.02,10.5c2.9,2.9,7.59,2.9,10.5,0.02l0,0l0.01-0.01c0,0,0,0,0.01-0.01c0,0,0,0,0.01-0.01l25.57-25.57
				v36.16c0,0,0,0,0,0.01c0,4.11,3.33,7.44,7.44,7.44s7.44-3.33,7.44-7.44v-0.01v-36.16l25.57,25.57l0,0c2.9,2.9,7.61,2.9,10.52,0
				c2.9-2.9,2.9-7.61,0-10.52c0,0,0,0-0.01-0.01l-25.57-25.57h36.16c0,0,0,0,0.01,0c4.11,0,7.44-3.33,7.44-7.44
				C7585.9,2518.45,7582.57,2515.12,7578.46,2515.12z"/>
			<path class="st7" d="M7829.84,2515.12C7829.83,2515.12,7829.83,2515.12,7829.84,2515.12h-36.16l25.57-25.57l0,0
				c2.9-2.9,2.9-7.61,0-10.52c-2.9-2.91-7.61-2.9-10.52,0c0,0,0,0-0.01,0.01l-25.57,25.57v-36.16c0,0,0,0,0-0.01c0,0,0,0,0-0.01
				v-0.02l0,0c-0.01-4.1-3.34-7.41-7.44-7.41s-7.42,3.32-7.44,7.41l0,0v0.02v0.01v0.01v36.16l-25.57-25.57c0,0,0,0,0-0.01
				c0,0,0,0-0.01-0.01l-0.01-0.01l0,0c-2.91-2.89-7.6-2.88-10.5,0.02c-2.9,2.9-2.9,7.59-0.02,10.5l0,0l0.01,0.01c0,0,0,0,0.01,0.01
				c0,0,0,0,0.01,0.01l25.57,25.57h-36.16c0,0,0,0-0.01,0c0,0,0,0-0.01,0h-0.02l0,0c-4.1,0.01-7.41,3.34-7.41,7.44
				c0,4.1,3.32,7.42,7.41,7.44l0,0h0.02h0.01h0.01h36.16l-25.57,25.57c0,0,0,0-0.01,0c0,0,0,0,0,0.01l-0.01,0.01l0,0
				c-2.89,2.91-2.88,7.6,0.02,10.5c2.9,2.9,7.59,2.9,10.5,0.02l0,0l0.01-0.01c0,0,0,0,0.01-0.01c0,0,0,0,0.01-0.01l25.57-25.57
				v36.16c0,0,0,0,0,0.01c0,4.11,3.33,7.44,7.44,7.44s7.44-3.33,7.44-7.44v-0.01v-36.16l25.57,25.57l0,0c2.9,2.9,7.61,2.9,10.52,0
				c2.9-2.9,2.9-7.61,0-10.52c0,0,0,0-0.01-0.01l-25.57-25.57h36.16c0,0,0,0,0.01,0c4.11,0,7.44-3.33,7.44-7.44
				C7837.28,2518.45,7833.95,2515.12,7829.84,2515.12z"/>
		</g>
		<g>
			<path class="st3" d="M8911.07,2129.23c-21.07-102.61-111.89-179.78-220.74-179.78c-88.85,0-165.68,51.42-202.38,126.13
				c-3.25-0.19-6.53-0.3-9.84-0.3c-90.23,0-163.38,73.15-163.38,163.38s73.15,163.38,163.38,163.38l0,0h421.61v-0.01
				c0.16,0,0.31,0.01,0.47,0.01c75.45,0,136.62-61.17,136.62-136.62C9036.82,2193.63,8981.44,2134.77,8911.07,2129.23z"/>
			<g>
				<g>
					
						<rect x="8496.83" y="2504.65" transform="matrix(0.5299 -0.848 0.848 0.5299 1894.4708 8463.3027)" class="st7" width="169.17" height="36.26"/>
					<circle class="st7" cx="8536.55" cy="2594.51" r="18.13"/>
					<circle class="st7" cx="8626.21" cy="2451.03" r="18.13"/>
				</g>
				<g>
					
						<rect x="8715.67" y="2506.41" transform="matrix(0.5299 -0.848 0.848 0.5299 1995.8439 8649.7148)" class="st7" width="169.17" height="36.26"/>
					<circle class="st7" cx="8755.39" cy="2596.29" r="18.13"/>
					<circle class="st7" cx="8845.05" cy="2452.81" r="18.13"/>
				</g>
				<g>
					
						<rect x="8440" y="2474.52" transform="matrix(0.5299 -0.8481 0.8481 0.5299 1877.4498 8372.1416)" class="st7" width="100.41" height="36.26"/>
					<circle class="st7" cx="8463.53" cy="2535.37" r="18.13"/>
					
						<ellipse transform="matrix(0.1602 -0.9871 0.9871 0.1602 4734.1704 10464.4688)" class="st7" cx="8516.84" cy="2450.06" rx="18.13" ry="18.13"/>
				</g>
				<g>
					
						<rect x="8658.82" y="2476.35" transform="matrix(0.5299 -0.8481 0.8481 0.5299 1978.7665 8558.5752)" class="st7" width="100.41" height="36.26"/>
					<circle class="st7" cx="8682.34" cy="2537.2" r="18.13"/>
					<circle class="st7" cx="8735.66" cy="2451.88" r="18.13"/>
				</g>
			</g>
		</g>
	</g>
	<g>
		<circle class="st3" cx="2370.18" cy="-748.61" r="238.28"/>
		<circle class="st3" cx="2145.8" cy="-681.09" r="172.76"/>
		<circle class="st3" cx="2592.08" cy="-652.8" r="144.46"/>
		<rect x="2145.8" y="-604.64" class="st3" width="445.79" height="96.31"/>
	</g>
	<g>
		<g>
			
				<rect x="2173.34" y="-406.57" transform="matrix(0.5299 -0.848 0.848 0.5299 1390.8004 1732.2217)" class="st7" width="169.17" height="36.26"/>
			<circle class="st7" cx="2213.05" cy="-316.7" r="18.13"/>
			<circle class="st7" cx="2302.71" cy="-460.18" r="18.13"/>
		</g>
		<g>
			
				<rect x="2392.17" y="-404.8" transform="matrix(0.5299 -0.848 0.848 0.5299 1492.1735 1918.6343)" class="st7" width="169.17" height="36.26"/>
			<circle class="st7" cx="2431.89" cy="-314.92" r="18.13"/>
			<circle class="st7" cx="2521.55" cy="-458.4" r="18.13"/>
		</g>
		<g>
			
				<rect x="2116.5" y="-436.69" transform="matrix(0.5299 -0.8481 0.8481 0.5299 1373.5769 1640.7528)" class="st7" width="100.41" height="36.26"/>
			<circle class="st7" cx="2140.03" cy="-375.84" r="18.13"/>
			
				<ellipse transform="matrix(0.1602 -0.9871 0.9871 0.1602 2297.2065 1777.736)" class="st7" cx="2193.34" cy="-461.15" rx="18.13" ry="18.13"/>
		</g>
		<g>
			
				<rect x="2335.32" y="-434.86" transform="matrix(0.5299 -0.8481 0.8481 0.5299 1474.8936 1827.1859)" class="st7" width="100.41" height="36.26"/>
			<circle class="st7" cx="2358.84" cy="-374.01" r="18.13"/>
			<circle class="st7" cx="2412.16" cy="-459.33" r="18.13"/>
		</g>
	</g>
	<g>
		<circle class="st3" cx="3382.18" cy="-748.61" r="238.28"/>
		<circle class="st3" cx="3157.8" cy="-681.09" r="172.76"/>
		<circle class="st3" cx="3604.08" cy="-652.8" r="144.46"/>
		<rect x="3157.8" y="-604.64" class="st3" width="445.79" height="96.31"/>
	</g>
	<g>
		<path class="st8" d="M3420.91-515.72C3420.91-515.72,3420.91-515.72,3420.91-515.72l-36.16,0l25.57-25.57c0,0,0,0,0,0
			c2.9-2.9,2.9-7.61,0-10.52s-7.61-2.9-10.52,0c0,0,0,0-0.01,0.01l-25.57,25.57v-36.16c0,0,0,0,0-0.01c0,0,0,0,0-0.01v-0.02h0
			c-0.01-4.1-3.34-7.41-7.44-7.41s-7.42,3.32-7.44,7.41h0v0.02c0,0,0,0.01,0,0.01c0,0,0,0.01,0,0.01v36.16l-25.57-25.57
			c0,0,0,0,0-0.01c0,0,0,0-0.01-0.01l-0.01-0.01l0,0c-2.91-2.89-7.6-2.88-10.5,0.02c-2.9,2.9-2.9,7.59-0.02,10.5l0,0l0.01,0.01
			c0,0,0,0,0.01,0.01c0,0,0,0,0.01,0.01l25.57,25.57h-36.16c0,0,0,0-0.01,0s-0.01,0-0.01,0h-0.02v0c-4.1,0.01-7.41,3.34-7.41,7.44
			c0,4.1,3.32,7.42,7.41,7.44v0h0.02c0,0,0.01,0,0.01,0c0,0,0.01,0,0.01,0h36.16l-25.57,25.57c0,0,0,0-0.01,0c0,0,0,0,0,0.01
			l-0.01,0.01l0,0c-2.89,2.91-2.88,7.6,0.02,10.5c2.9,2.9,7.59,2.9,10.5,0.02l0,0l0.01-0.01c0,0,0,0,0.01-0.01c0,0,0,0,0.01-0.01
			l25.57-25.57v36.16c0,0,0,0,0,0.01c0,4.11,3.33,7.44,7.44,7.44s7.44-3.33,7.44-7.44c0,0,0-0.01,0-0.01v-36.16l25.57,25.57
			c0,0,0,0,0,0c2.9,2.9,7.61,2.9,10.52,0c2.9-2.9,2.9-7.61,0-10.52c0,0,0,0-0.01-0.01l-25.57-25.57h36.16c0,0,0,0,0.01,0
			c4.11,0,7.44-3.33,7.44-7.44C3428.35-512.39,3425.02-515.72,3420.91-515.72z"/>
		<path class="st8" d="M3295.22-395.19C3295.22-395.19,3295.22-395.19,3295.22-395.19l-36.16,0l25.57-25.57c0,0,0,0,0,0
			c2.9-2.9,2.9-7.61,0-10.52c-2.9-2.9-7.61-2.9-10.52,0c0,0,0,0-0.01,0.01l-25.57,25.57v-36.16c0,0,0,0,0-0.01s0,0,0-0.01v-0.02h0
			c-0.01-4.1-3.34-7.41-7.44-7.41s-7.42,3.32-7.44,7.41h0v0.02c0,0,0,0.01,0,0.01c0,0,0,0.01,0,0.01v36.16l-25.57-25.57
			c0,0,0,0,0-0.01c0,0,0,0-0.01-0.01l-0.01-0.01l0,0c-2.91-2.89-7.6-2.88-10.5,0.02c-2.9,2.9-2.9,7.59-0.02,10.5l0,0l0.01,0.01
			c0,0,0,0,0.01,0.01c0,0,0,0,0.01,0.01l25.57,25.57h-36.16c0,0,0,0-0.01,0s0,0-0.01,0h-0.02v0c-4.1,0.01-7.41,3.34-7.41,7.44
			c0,4.1,3.32,7.42,7.41,7.44v0h0.02c0,0,0.01,0,0.01,0s0.01,0,0.01,0h36.16l-25.57,25.57c0,0,0,0-0.01,0c0,0,0,0,0,0.01l-0.01,0.01
			l0,0c-2.89,2.91-2.88,7.6,0.02,10.5c2.9,2.9,7.59,2.9,10.5,0.02l0,0l0.01-0.01c0,0,0,0,0.01-0.01c0,0,0,0,0.01-0.01l25.57-25.57
			v36.16c0,0,0,0,0,0.01c0,4.11,3.33,7.44,7.44,7.44c4.11,0,7.44-3.33,7.44-7.44c0,0,0-0.01,0-0.01v-36.16l25.57,25.57c0,0,0,0,0,0
			c2.9,2.9,7.61,2.9,10.52,0c2.9-2.9,2.9-7.61,0-10.52c0,0,0,0-0.01-0.01l-25.57-25.57h36.16c0,0,0,0,0.01,0
			c4.11,0,7.44-3.33,7.44-7.44S3299.33-395.19,3295.22-395.19z"/>
		<path class="st8" d="M3546.6-395.19C3546.6-395.19,3546.59-395.19,3546.6-395.19l-36.16,0l25.57-25.57c0,0,0,0,0,0
			c2.9-2.9,2.9-7.61,0-10.52c-2.9-2.9-7.61-2.9-10.52,0c0,0,0,0-0.01,0.01l-25.57,25.57v-36.16c0,0,0,0,0-0.01s0,0,0-0.01v-0.02h0
			c-0.01-4.1-3.34-7.41-7.44-7.41s-7.42,3.32-7.44,7.41h0v0.02c0,0,0,0.01,0,0.01c0,0,0,0.01,0,0.01v36.16l-25.57-25.57
			c0,0,0,0,0-0.01c0,0,0,0-0.01-0.01l-0.01-0.01l0,0c-2.91-2.89-7.6-2.88-10.5,0.02c-2.9,2.9-2.9,7.59-0.02,10.5l0,0l0.01,0.01
			c0,0,0,0,0.01,0.01c0,0,0,0,0.01,0.01l25.57,25.57h-36.16c0,0,0,0-0.01,0s0,0-0.01,0h-0.02v0c-4.1,0.01-7.41,3.34-7.41,7.44
			c0,4.1,3.32,7.42,7.41,7.44v0h0.02c0,0,0.01,0,0.01,0s0.01,0,0.01,0h36.16l-25.57,25.57c0,0,0,0-0.01,0c0,0,0,0,0,0.01l-0.01,0.01
			l0,0c-2.89,2.91-2.88,7.6,0.02,10.5c2.9,2.9,7.59,2.9,10.5,0.02l0,0l0.01-0.01c0,0,0,0,0.01-0.01c0,0,0,0,0.01-0.01l25.57-25.57
			v36.16c0,0,0,0,0,0.01c0,4.11,3.33,7.44,7.44,7.44c4.11,0,7.44-3.33,7.44-7.44c0,0,0-0.01,0-0.01v-36.16l25.57,25.57c0,0,0,0,0,0
			c2.9,2.9,7.61,2.9,10.52,0c2.9-2.9,2.9-7.61,0-10.52c0,0,0,0-0.01-0.01l-25.57-25.57h36.16c0,0,0,0,0.01,0
			c4.11,0,7.44-3.33,7.44-7.44S3550.71-395.19,3546.6-395.19z"/>
	</g>
	<g>
		<circle class="st3" cx="1383.19" cy="-665.08" r="238.28"/>
		<circle class="st3" cx="1158.8" cy="-597.57" r="172.76"/>
		<circle class="st3" cx="1605.09" cy="-569.27" r="144.46"/>
		<rect x="1158.8" y="-521.12" class="st3" width="445.79" height="96.31"/>
	</g>
	<g>
		<rect x="4023.76" y="-546.59" class="st3" width="691.34" height="43.2"/>
		<circle class="st3" cx="4023.76" cy="-524.99" r="21.6"/>
		<circle class="st3" cx="4715.1" cy="-524.99" r="21.6"/>
		<g>
			<rect x="4114.04" y="-467.89" class="st3" width="521.84" height="43.2"/>
			<circle class="st3" cx="4114.04" cy="-446.29" r="21.6"/>
			<circle class="st3" cx="4635.91" cy="-446.29" r="21.6"/>
		</g>
		<path class="st3" d="M4740.06-603.69c0-2.25-0.35-4.42-0.99-6.46c0-0.01,0-0.03,0-0.04c-16.57-56.38-66.6-98.44-127.11-103.2
			c-22.29-108.5-118.32-190.09-233.41-190.09c-93.95,0-175.18,54.37-213.98,133.36c-3.44-0.2-6.91-0.32-10.4-0.32
			c-93.21,0-169.18,73.82-172.63,166.18l0.01,0.01c0,0.19-0.03,0.37-0.03,0.56c0,11.93,9.67,21.6,21.6,21.6c0.01,0,0.03,0,0.04,0
			l0,0h715.28c0.01,0,0.02,0,0.02,0h0.02h0.02l0,0C4730.42-582.12,4740.06-591.78,4740.06-603.69z"/>
	</g>
	<g>
		<g>
			<circle class="st3" cx="5352.84" cy="-791.41" r="238.28"/>
			<circle class="st3" cx="5128.45" cy="-723.9" r="172.76"/>
			<circle class="st3" cx="5574.74" cy="-695.6" r="144.46"/>
			<rect x="5128.45" y="-647.45" class="st3" width="445.79" height="96.31"/>
		</g>
		<polygon class="st4" points="5305.69,-530.63 5376.47,-530.63 5315.33,-441.21 5373.75,-443.06 5234.09,-298.49 5290.02,-409.15 
			5248.64,-406.61 		"/>
	</g>
	<g transform="translate(1.4065934065934016 1.4065934065934016) scale(2.81 2.81)">
		<path class="st9" d="M-897.02,280.32c-3.23,0-6.21-1.71-7.86-4.49l-13.6-23c-28.05-47.42-54.55-92.21-63.55-110.28
			c-6.34-13.01-9.54-26.92-9.54-41.43c0-52.13,42.42-94.55,94.55-94.55c52.14,0,94.55,42.41,94.55,94.55
			c0,14.49-3.2,28.41-9.5,41.35c-0.06,0.13-0.13,0.25-0.19,0.38c-9.15,18.27-35.5,62.82-63.4,109.98l-13.6,23
			C-890.8,278.61-893.79,280.32-897.02,280.32z M-897.02,24.82c-42.07,0-76.3,34.23-76.3,76.3c0,11.7,2.58,22.93,7.66,33.36
			c8.67,17.4,36.22,63.97,62.86,109.01l5.78,9.77l5.75-9.72c26.65-45.06,54.21-91.65,62.92-109.13c0.04-0.07,0.07-0.14,0.11-0.2
			c4.99-10.36,7.53-21.49,7.53-33.08C-820.72,59.05-854.94,24.82-897.02,24.82z"/>
		<path class="st9" d="M-897.02,142.22c-24.56,0-44.55-19.98-44.55-44.55s19.98-44.54,44.55-44.54c24.56,0,44.55,19.98,44.55,44.55
			S-872.45,142.22-897.02,142.22z M-897.02,71.37c-14.5,0-26.3,11.8-26.3,26.3s11.8,26.3,26.3,26.3c14.5,0,26.3-11.8,26.3-26.3
			S-882.51,71.37-897.02,71.37z"/>
	</g>
	<g>
		<path class="st9" d="M-1849.06,347.49h317.57c31.71,0,61.64-12.46,84.26-35.09c22.63-22.63,35.09-52.55,35.09-84.26
			s-12.46-61.64-35.09-84.26c-22.62-22.63-52.55-35.09-84.26-35.09c-31.71,0-61.64,12.46-84.26,35.09
			c-22.63,22.63-35.09,52.55-35.09,84.26c0,14.76,11.97,26.73,26.73,26.73c14.76,0,26.73-11.97,26.73-26.73
			c0-36.34,29.56-65.9,65.9-65.9s65.9,29.56,65.9,65.9s-29.56,65.9-65.9,65.9h-317.57c-14.76,0-26.73,11.97-26.73,26.73
			S-1863.82,347.49-1849.06,347.49z"/>
		<path class="st9" d="M-1205.43,240.43c-22.62-22.63-52.55-35.09-84.26-35.09s-61.64,12.46-84.26,35.09
			c-22.63,22.63-35.09,52.55-35.09,84.26c0,14.76,11.97,26.73,26.73,26.73c14.76,0,26.73-11.97,26.73-26.73
			c0-36.34,29.56-65.9,65.9-65.9s65.9,29.56,65.9,65.9s-29.56,65.9-65.9,65.9h-595.43c-14.76,0-26.73,11.97-26.73,26.73
			s11.97,26.73,26.73,26.73h595.43c31.71,0,61.64-12.46,84.26-35.09c22.63-22.63,35.09-52.55,35.09-84.26
			S-1182.8,263.05-1205.43,240.43z M-1452.53,494.38c-3.26-1.36-6.75-2.05-10.27-2.05h-264.64c-14.76,0-26.73,11.97-26.73,26.73
			s11.97,26.73,26.73,26.73h254.35c27.35,0,50.46,23.11,50.46,50.46c0,27.35-23.11,50.46-50.46,50.46
			c-27.35,0-50.46-23.11-50.46-50.46c0-14.76-11.97-26.73-26.73-26.73c-14.76,0-26.73,11.97-26.73,26.73
			c0,27.62,10.85,53.67,30.54,73.37c19.7,19.7,45.75,30.54,73.37,30.54c27.62,0,53.68-10.85,73.37-30.54
			c19.7-19.7,30.54-45.75,30.54-73.37s-10.85-53.67-30.54-73.37C-1414.45,508.16-1432.72,498.39-1452.53,494.38L-1452.53,494.38z"/>
	</g>
	<g>
		<path class="st6" d="M-577.3,146.4c0.84,1.65,1.7,3.34,2.57,5.08c18.13,36,37.99,79.96,55.93,123.8
			c19.95,48.76,36.71,95.29,48.46,134.57c16.68,55.76,19.17,82.97,19.17,94.23c0,33.69-13.12,65.36-36.94,89.18
			c-23.82,23.82-55.49,36.94-89.18,36.94c-33.69,0-65.36-13.12-89.18-36.94s-36.94-55.49-36.94-89.18
			c0-11.26,2.49-38.49,19.17-94.25c11.75-39.28,28.5-85.81,48.44-134.56c17.93-43.84,37.79-87.8,55.92-123.78
			C-579,149.75-578.14,148.05-577.3,146.4 M-577.29,46.83c-24.71,0-181.12,339.81-181.12,457.24
			c0,100.03,81.09,181.12,181.12,181.12c100.03,0,181.12-81.09,181.12-181.12C-396.18,386.69-552.63,46.83-577.29,46.83
			L-577.29,46.83z"/>
	</g>
	<g id="I9jXA1.tif_00000155838754899846672420000005847548571987298437_">
		<g>
			<path d="M1739.91,1175.78c0,68.08,0.02,136.16-0.07,204.24c0,3.47,1.01,5.68,3.72,7.97c38.47,32.43,53.43,73.72,41.02,122.34
				c-12.53,49.07-45.83,78.85-95.63,87.84c-67.71,12.22-131.82-38.11-137.32-106.9c-3.35-41.82,11.89-76.19,44.1-102.95
				c3.04-2.53,4.06-4.97,4.06-8.77c-0.09-134.17-0.09-268.33-0.06-402.5c0.01-35.01,24.2-64.1,57.94-69.88
				c43.41-7.44,82.15,25.16,82.2,69.36c0.08,63.92-0.01,127.84-0.02,191.76c0,2.5,0,4.99,0,7.49
				C1739.88,1175.78,1739.9,1175.78,1739.91,1175.78z M1716.56,1183.56c0-68.93,0.04-137.86-0.02-206.79
				c-0.02-26.96-21.59-48.06-48.11-47.34c-25.72,0.7-45.27,21.68-45.27,48.7c-0.02,137.19-0.05,274.38,0.13,411.58
				c0.01,5.84-1.7,9.1-6.61,12.37c-38.07,25.42-52.51,74.16-34.76,115.96c17.92,42.2,63.18,65.89,107.73,56.39
				c37.18-7.93,67.32-37.92,73.68-74.92c7.02-40.83-6.86-73.64-40.66-97.66c-4.36-3.1-6.27-5.95-6.25-11.49
				C1716.64,1321.42,1716.56,1252.49,1716.56,1183.56z"/>
			<path d="M1847.5,1089.35c23.12,0,46.24-0.05,69.36,0.02c9.52,0.03,15.4,7.57,12.47,15.75c-1.74,4.87-5.99,7.71-12.17,7.79
				c-9.15,0.11-18.3,0.03-27.45,0.03c-36.76,0-73.52,0.01-110.28-0.01c-8.47-0.01-13.63-4.06-14.06-10.91
				c-0.48-7.56,4.75-12.64,13.26-12.66C1801.59,1089.32,1824.54,1089.35,1847.5,1089.35z"/>
			<path d="M1847.98,1239.01c-23.45,0-46.9-0.01-70.35,0.01c-4.92,0-8.79-1.94-11.02-6.35c-2.11-4.17-1.83-8.39,0.93-12.26
				c2.67-3.74,6.5-4.79,10.91-4.79c28.44,0.04,56.88,0.01,85.32,0.01c17.96,0,35.92-0.1,53.88,0.06c9.15,0.08,14.65,7.9,11.54,15.91
				c-1.88,4.84-6.03,7.39-12.36,7.4C1893.88,1239.03,1870.93,1239.01,1847.98,1239.01z"/>
			<path d="M1847.42,1365.1c-23.28,0-46.57-0.02-69.85,0.02c-5.17,0.01-9.07-2.05-11.18-6.8c-1.99-4.48-1.73-9.18,1.94-12.43
				c2.4-2.12,6.08-3.9,9.2-3.92c46.73-0.23,93.46-0.18,140.2-0.11c7.23,0.01,12.34,4.99,12.37,11.6c0.03,6.59-5.1,11.59-12.33,11.61
				C1894.32,1365.15,1870.87,1365.1,1847.42,1365.1z"/>
			<path d="M1847.51,986.56c-23.28,0-46.57,0.03-69.85-0.02c-5.87-0.01-10.02-2.83-11.72-7.56c-1.66-4.61-0.34-10.16,3.71-13.01
				c2.05-1.44,4.83-2.57,7.28-2.58c47.06-0.16,94.13-0.17,141.19-0.11c6.87,0.01,11.87,5.11,11.95,11.53
				c0.09,6.59-5.01,11.68-12.22,11.71C1894.41,986.62,1870.96,986.56,1847.51,986.56z"/>
			<path d="M1812.15,1175.96c-11.14,0-22.27,0.02-33.41-0.01c-8.16-0.02-13.28-4.46-13.4-11.52c-0.13-7.27,5.01-11.98,13.46-12
				c22.27-0.07,44.54-0.06,66.81-0.01c8.38,0.02,13.75,4.74,13.75,11.82c0,7.07-5.42,11.69-13.81,11.71
				C1834.43,1175.98,1823.29,1175.96,1812.15,1175.96z"/>
			<path d="M1811.98,1026.29c11.3,0,22.6-0.03,33.9,0.01c8.08,0.03,13.28,4.51,13.46,11.52c0.18,7.05-5.24,11.94-13.56,11.96
				c-22.27,0.06-44.54,0.05-66.81-0.01c-8.56-0.02-13.66-4.53-13.62-11.8c0.04-7.31,5.13-11.66,13.72-11.68
				C1790.04,1026.27,1801.01,1026.29,1811.98,1026.29z"/>
			<path d="M1812.46,1278.78c11.3,0,22.6-0.04,33.9,0.01c7.73,0.03,12.85,4.59,13,11.4c0.15,6.94-5.16,11.85-13.08,11.86
				c-22.93,0.04-45.87,0.05-68.8-0.01c-7.25-0.02-12.16-4.87-12.14-11.68c0.02-6.81,4.88-11.5,12.23-11.56
				C1789.2,1278.73,1800.83,1278.78,1812.46,1278.78z"/>
			<path class="st6" d="M1716.56,1183.56c0,68.93,0.08,137.86-0.15,206.79c-0.02,5.54,1.89,8.39,6.25,11.49
				c33.8,24.02,47.68,56.83,40.66,97.66c-6.36,37-36.5,66.99-73.68,74.92c-44.55,9.5-89.81-14.19-107.73-56.39
				c-17.75-41.81-3.3-90.55,34.76-115.96c4.9-3.27,6.61-6.53,6.61-12.37c-0.18-137.19-0.15-274.38-0.13-411.58
				c0-27.02,19.55-48,45.27-48.7c26.52-0.72,48.09,20.38,48.11,47.34C1716.6,1045.7,1716.56,1114.63,1716.56,1183.56z
				 M1658.18,1237.58c0.06,0,0.11,0,0.17,0c0,56.76-0.1,113.52,0.15,170.28c0.03,5.76-1.6,7.69-7.14,9.14
				c-35.5,9.25-57.49,46.29-49.24,82.16c8.38,36.43,43.99,60.04,80.25,53.22c31.93-6.01,55.99-33.35,57.15-64.94
				c1.24-33.9-19.97-62.74-52.63-70.92c-4.42-1.11-5.26-2.88-5.26-6.96c0.07-109.36,0.02-218.72-0.02-328.08
				c0-5.99,0.08-11.99-0.13-17.98c-0.23-6.53-5.26-11.34-11.54-11.38c-6.36-0.04-11.22,4.58-11.73,11.19
				c-0.09,1.16-0.02,2.33-0.02,3.49C1658.18,1123.73,1658.18,1180.65,1658.18,1237.58z"/>
			<path d="M1658.18,1237.58c0-56.93,0-113.85,0-170.78c0-1.16-0.07-2.34,0.02-3.49c0.51-6.62,5.36-11.24,11.73-11.19
				c6.28,0.04,11.31,4.85,11.54,11.38c0.22,5.99,0.13,11.98,0.13,17.98c0.04,109.36,0.09,218.72,0.02,328.08
				c0,4.08,0.84,5.85,5.26,6.96c32.66,8.19,53.88,37.03,52.63,70.92c-1.16,31.59-25.22,58.93-57.15,64.94
				c-36.26,6.83-71.88-16.79-80.25-53.22c-8.25-35.87,13.74-72.9,49.24-82.16c5.55-1.45,7.17-3.38,7.14-9.14
				c-0.26-56.76-0.15-113.52-0.15-170.28C1658.29,1237.58,1658.24,1237.58,1658.18,1237.58z"/>
		</g>
	</g>
	<path class="st10" d="M392.58,775.87c-6.2-0.95-12.42-1.72-18.58-2.87c-33.05-6.16-61.58-21.16-85.08-45.15
		c-34.7-35.43-50.51-78.34-46.56-127.68c3.91-48.81,26.5-87.95,65.51-117.47c2.54-1.92,3.34-3.83,3.34-6.88
		c-0.07-115.64-0.04-231.28-0.08-346.91c-0.01-27.51,8.96-51.42,29.31-70.09c27.09-24.86,58.95-32.05,93.62-20.09
		c34.83,12.02,55.21,37.5,61.45,73.95c0.97,5.68,1.16,11.56,1.16,17.34c0.06,114.88,0.07,229.76-0.04,344.64
		c0,3.92,1.08,6.3,4.27,8.72c36.26,27.6,58.08,64.05,63.89,109.26c9.73,75.83-33.36,144.63-100.86,171.77
		c-14.69,5.91-29.94,9.56-45.75,10.8c-0.97,0.08-1.92,0.44-2.88,0.66C407.72,775.87,400.15,775.87,392.58,775.87z M473.48,306.56
		c0-58.96,0.01-117.92-0.02-176.89c0-3.65-0.2-7.32-0.56-10.95c-4.18-42.81-47.5-71.65-88.79-59.15
		c-30.11,9.12-49.71,35.98-49.72,68.33c-0.03,117.42-0.13,234.84,0.23,352.26c0.03,8.92-2.59,13.91-9.76,19.19
		c-48.37,35.66-68.23,83.8-56.7,142.75c14.51,74.18,86.59,121.62,161.18,108.14c90.1-16.28,140.06-116.27,99.17-198.42
		c-11.83-23.77-29.23-42.46-51.38-56.82c-2.74-1.78-3.72-3.7-3.72-7.01C473.51,427.51,473.48,367.04,473.48,306.56z"/>
	<path d="M1113.52,374.03c0-40.78-0.02-81.55,0.01-122.33c0.01-17.44,12.91-32.56,29.42-34.62c18.31-2.29,34.31,8.16,38.86,25.57
		c0.85,3.25,1.2,6.72,1.2,10.09c0.06,81.68,0.07,163.35-0.02,245.03c0,2.92,0.75,4.38,3.51,5.62c36.66,16.47,58.5,55.08,53.95,95.04
		c-4.55,39.88-34.56,72.58-73.9,80.52c-52.98,10.69-104.4-26.78-110.42-80.45c-4.5-40.14,17.1-78.38,53.88-95.08
		c2.73-1.24,3.59-2.6,3.58-5.56C1113.49,456.59,1113.52,415.31,1113.52,374.03z"/>
	<g>
		<path d="M388.6,1874.05c-6.2-0.95-12.42-1.72-18.58-2.87c-33.05-6.16-61.58-21.16-85.08-45.15
			c-34.7-35.43-50.51-78.34-46.56-127.68c3.91-48.81,26.5-87.95,65.51-117.47c2.54-1.92,3.34-3.83,3.34-6.88
			c-0.07-115.64-0.04-231.28-0.08-346.91c-0.01-27.51,8.96-51.42,29.31-70.09c27.09-24.86,58.95-32.05,93.62-20.09
			c34.83,12.02,55.21,37.5,61.45,73.95c0.97,5.68,1.16,11.56,1.16,17.34c0.06,114.88,0.07,229.76-0.04,344.64
			c0,3.92,1.08,6.3,4.27,8.72c36.26,27.6,58.08,64.05,63.89,109.26c9.73,75.83-33.36,144.63-100.86,171.77
			c-14.69,5.91-29.94,9.56-45.75,10.8c-0.97,0.08-1.92,0.44-2.88,0.66C403.73,1874.05,396.16,1874.05,388.6,1874.05z M469.5,1404.73
			c0-58.96,0.01-117.92-0.02-176.89c0-3.65-0.2-7.32-0.56-10.95c-4.18-42.81-47.5-71.65-88.79-59.15
			c-30.11,9.12-49.71,35.98-49.72,68.33c-0.03,117.42-0.13,234.84,0.23,352.26c0.03,8.92-2.59,13.91-9.76,19.19
			c-48.37,35.66-68.23,83.8-56.7,142.75c14.51,74.18,86.59,121.62,161.18,108.14c90.1-16.28,140.06-116.27,99.17-198.42
			c-11.83-23.77-29.23-42.46-51.38-56.82c-2.74-1.78-3.72-3.7-3.72-7.01C469.53,1525.69,469.5,1465.21,469.5,1404.73z"/>
		<path d="M365.18,1497.7c0-40.78-0.02-81.55,0.01-122.33c0.01-17.44,12.91-32.56,29.42-34.62c18.31-2.29,34.31,8.16,38.86,25.57
			c0.85,3.25,1.2,6.72,1.2,10.09c0.06,81.68,0.07,163.35-0.02,245.03c0,2.92,0.75,4.38,3.51,5.62
			c36.65,16.47,58.5,55.08,53.95,95.04c-4.55,39.88-34.56,72.58-73.9,80.52c-52.98,10.69-104.4-26.78-110.42-80.45
			c-4.5-40.15,17.1-78.38,53.88-95.08c2.73-1.24,3.59-2.6,3.58-5.56C365.14,1580.26,365.18,1538.98,365.18,1497.7z"/>
	</g>
	<circle class="st6" cx="403.96" cy="614.2" r="80.47"/>
	<path class="st6" d="M425.41,256c0-0.11-0.01-0.21-0.01-0.32v-0.16h0c-0.25-11.63-9.75-20.98-21.44-20.98
		c-11.69,0-21.19,9.35-21.44,20.98h0v0.16c0,0.11-0.01,0.21-0.01,0.32c0,0.11,0.01,0.21,0.01,0.32v288.91h42.89V256.31
		C425.4,256.21,425.41,256.1,425.41,256z"/>
</g>
</svg>
