<?xml version="1.0" encoding="utf-8"?>
<!-- Generator: Adobe Illustrator 27.0.1, SVG Export Plug-In . SVG Version: 6.00 Build 0)  -->
<svg version="1.1" xmlns="http://www.w3.org/2000/svg" xmlns:xlink="http://www.w3.org/1999/xlink" x="0px" y="0px"
	 viewBox="0 0 807.91 808.95" style="enable-background:new 0 0 807.91 808.95;" xml:space="preserve">
<style type="text/css">
	.st0{display:none;}
	.st1{display:inline;fill:#7DCAFE;}
	.st2{fill:#FCF0BE;}
	.st3{fill:#F9F9F9;}
	.st4{fill:#FFD400;}
	.st5{fill:#FFB600;}
	.st6{fill:#FFFFFF;}
	.st7{fill:#6BA7CF;}
	.st8{fill:#8CC9EA;}
</style>
<g id="Layer_1" class="st0">
</g>
<g id="Layer_2">
	<g>
		<path class="st6" d="M96,347.49h317.57c31.71,0,61.64-12.46,84.26-35.09c22.63-22.63,35.09-52.55,35.09-84.26
			s-12.46-61.64-35.09-84.26c-22.62-22.63-52.55-35.09-84.26-35.09c-31.71,0-61.64,12.46-84.26,35.09s-35.09,52.55-35.09,84.26
			c0,14.76,11.97,26.73,26.73,26.73c14.76,0,26.73-11.97,26.73-26.73c0-36.34,29.56-65.9,65.9-65.9s65.9,29.56,65.9,65.9
			s-29.56,65.9-65.9,65.9H96c-14.76,0-26.73,11.97-26.73,26.73S81.24,347.49,96,347.49z"/>
		<path class="st6" d="M739.63,240.43c-22.62-22.63-52.55-35.09-84.26-35.09c-31.71,0-61.64,12.46-84.26,35.09
			c-22.63,22.63-35.09,52.55-35.09,84.26c0,14.76,11.97,26.73,26.73,26.73s26.73-11.97,26.73-26.73c0-36.34,29.56-65.9,65.9-65.9
			c36.33,0,65.9,29.56,65.9,65.9s-29.56,65.9-65.9,65.9H59.93c-14.76,0-26.73,11.97-26.73,26.73s11.97,26.73,26.73,26.73h595.43
			c31.71,0,61.64-12.46,84.26-35.09c22.63-22.63,35.09-52.55,35.09-84.26S762.25,263.05,739.63,240.43z M492.52,494.38
			c-3.26-1.36-6.75-2.05-10.27-2.05H217.61c-14.76,0-26.73,11.97-26.73,26.73s11.97,26.73,26.73,26.73h254.35
			c27.35,0,50.46,23.11,50.46,50.46c0,27.35-23.11,50.46-50.46,50.46c-27.35,0-50.46-23.11-50.46-50.46
			c0-14.76-11.97-26.73-26.73-26.73c-14.76,0-26.73,11.97-26.73,26.73c0,27.62,10.85,53.67,30.54,73.37
			c19.7,19.7,45.75,30.54,73.37,30.54c27.62,0,53.68-10.85,73.37-30.54c19.7-19.7,30.54-45.75,30.54-73.37s-10.85-53.67-30.54-73.37
			C530.61,508.16,512.34,498.39,492.52,494.38L492.52,494.38z"/>
	</g>
</g>
</svg>
